<?xml version="1.0" encoding="UTF-8"?>
<svg id="Layer_1" data-name="Layer 1" xmlns="http://www.w3.org/2000/svg" xmlns:xlink="http://www.w3.org/1999/xlink" viewBox="0 0 1280 720">
  <defs>
    <linearGradient id="gradient_main" data-name="gradient main" x1="303.975" y1="244.022" x2="384.521" y2="244.022" gradientUnits="userSpaceOnUse">
      <stop offset=".006" stop-color="#2563eb"/>
      <stop offset="1" stop-color="#6d28d9"/>
    </linearGradient>
    <linearGradient id="gradient_main-2" data-name="gradient main" x1="270.892" y1="276.16" x2="351.437" y2="276.16" xlink:href="#gradient_main"/>
    <linearGradient id="gradient_main-3" data-name="gradient main" x1="758.183" y1="64.829" x2="812.652" y2="64.829" xlink:href="#gradient_main"/>
    <linearGradient id="gradient_main-4" data-name="gradient main" x1="962.292" y1="253.054" x2="1002.361" y2="253.054" gradientTransform="translate(729.272 1235.38) rotate(-90)" xlink:href="#gradient_main"/>
    <linearGradient id="gradient_main-5" data-name="gradient main" x1="779.501" y1="301.881" x2="689.145" y2="216.778" xlink:href="#gradient_main"/>
    <linearGradient id="gradient_main-6" data-name="gradient main" x1="506.422" y1="130.466" x2="392.749" y2="35.127" xlink:href="#gradient_main"/>
    <linearGradient id="gradient_main-7" data-name="gradient main" x1="906.789" y1="190.05" x2="819.435" y2="116.785" xlink:href="#gradient_main"/>
    <linearGradient id="gradient_main-8" data-name="gradient main" x1="926.919" y1="208.479" x2="807.547" y2="108.361" xlink:href="#gradient_main"/>
    <linearGradient id="gradient_main-9" data-name="gradient main" x1="587.379" y1="335.1" x2="484.483" y2="241.242" xlink:href="#gradient_main"/>
    <linearGradient id="gradient_main-10" data-name="gradient main" x1="600.641" y1="366.962" x2="461.585" y2="240.12" xlink:href="#gradient_main"/>
    <linearGradient id="linear-gradient" x1="-184.901" y1="852.03" x2="-174.652" y2="823.783" gradientTransform="translate(1112.56 -436.845) rotate(11.512)" gradientUnits="userSpaceOnUse">
      <stop offset="0" stop-color="#fbb59e"/>
      <stop offset="1" stop-color="#ffebd1"/>
    </linearGradient>
    <linearGradient id="linear-gradient-2" x1="-1357.12" y1="1055.086" x2="-1346.932" y2="1090.844" gradientTransform="translate(2304.291 -589.485) rotate(5.704)" xlink:href="#linear-gradient"/>
    <linearGradient id="linear-gradient-3" x1="-1342.97" y1="1033.61" x2="-1394.007" y2="1055.998" gradientTransform="translate(2304.291 -589.485) rotate(5.704)" xlink:href="#linear-gradient"/>
    <linearGradient id="gradient_main-11" data-name="gradient main" x1="717.992" y1="215.172" x2="525.832" y2="86.594" xlink:href="#gradient_main"/>
  </defs>
  <ellipse cx="651.424" cy="674.883" rx="416.688" ry="10.894" fill="#8686f2" opacity=".2"/>
  <ellipse cx="846.968" cy="648.465" rx="53.38" ry="1.362" fill="#0075f6" opacity=".2"/>
  <g>
    <rect x="303.982" y="223.813" width="80.532" height="40.419" rx="3.674" ry="3.674" fill="url(#gradient_main)" opacity=".3"/>
    <rect x="270.899" y="255.951" width="80.532" height="40.419" rx="3.674" ry="3.674" fill="url(#gradient_main-2)" opacity=".3"/>
  </g>
  <g opacity=".3">
    <path d="m785.418,92.064c-15.017,0-27.235-12.217-27.235-27.235s12.217-27.235,27.235-27.235,27.235,12.217,27.235,27.235-12.217,27.235-27.235,27.235Zm0-42.365c-8.343,0-15.13,6.788-15.13,15.13s6.788,15.13,15.13,15.13,15.13-6.788,15.13-15.13-6.788-15.13-15.13-15.13Z" fill="url(#gradient_main-3)"/>
  </g>
  <rect x="942.288" y="233.02" width="80.076" height="40.069" rx="6.698" ry="6.698" transform="translate(1235.38 -729.272) rotate(90)" fill="url(#gradient_main-4)" opacity=".3"/>
  <g>
    <rect x="711.34" y="235.862" width="62.639" height="62.639" rx="6.977" ry="6.977" fill="url(#gradient_main-5)"/>
    <g>
      <path d="m763.962,240.455c0,.517-.419.935-.935.935s-.935-.419-.935-.935.419-.935.935-.935.935.419.935.935Z" fill="#fff"/>
      <circle cx="763.027" cy="243.573" r=".935" fill="#fff"/>
      <path d="m766.456,240.455c0,.517-.419.935-.935.935s-.935-.419-.935-.935.419-.935.935-.935.935.419.935.935Z" fill="#fff"/>
      <circle cx="765.521" cy="243.573" r=".935" fill="#fff"/>
      <path d="m768.95,240.455c0,.517-.419.935-.935.935s-.935-.419-.935-.935.419-.935.935-.935.935.419.935.935Z" fill="#fff"/>
      <path d="m768.95,243.573c0,.517-.419.935-.935.935s-.935-.419-.935-.935.419-.935.935-.935.935.419.935.935Z" fill="#fff"/>
    </g>
    <path d="m714.312,282.042c-1.02,0-2.012.105-2.972.311v6.666c.919-.375,1.92-.576,2.972-.576,4.412,0,8.001,3.589,8.001,8.001,0,.709-.091,1.399-.27,2.058h6.525c.096-.672.146-1.358.146-2.058,0-7.942-6.461-14.402-14.402-14.402Z" fill="#c2cbf2"/>
    <g>
      <path d="m716.883,266.217l15.347-7.908v2.284l-12.934,6.483v.065l12.934,6.486v2.281l-15.347-7.905v-1.786Z" fill="#fdfffe"/>
      <path d="m768.107,268.035l-15.347,7.873v-2.281l13.031-6.486v-.065l-13.031-6.483v-2.284l15.347,7.873v1.853Z" fill="#fdfffe"/>
    </g>
  </g>
  <g>
    <g>
      <rect x="413.939" y="46.31" width="81.704" height="81.704" rx="9.101" ry="9.101" fill="url(#gradient_main-6)"/>
      <g>
        <path d="m427.005,122.023c0-.674.546-1.22,1.22-1.22s1.22.546,1.22,1.22-.546,1.22-1.22,1.22-1.22-.546-1.22-1.22Z" fill="#fff"/>
        <path d="m427.005,117.956c0-.674.546-1.22,1.22-1.22s1.22.546,1.22,1.22-.546,1.22-1.22,1.22-1.22-.546-1.22-1.22Z" fill="#fff"/>
        <path d="m423.752,122.023c0-.674.546-1.22,1.22-1.22s1.22.546,1.22,1.22-.546,1.22-1.22,1.22-1.22-.546-1.22-1.22Z" fill="#fff"/>
        <path d="m423.752,117.956c0-.674.546-1.22,1.22-1.22s1.22.546,1.22,1.22-.546,1.22-1.22,1.22-1.22-.546-1.22-1.22Z" fill="#fff"/>
        <path d="m420.499,122.023c0-.674.546-1.22,1.22-1.22s1.22.546,1.22,1.22-.546,1.22-1.22,1.22-1.22-.546-1.22-1.22Z" fill="#fff"/>
        <path d="m420.499,117.956c0-.674.546-1.22,1.22-1.22s1.22.546,1.22,1.22-.546,1.22-1.22,1.22-1.22-.546-1.22-1.22Z" fill="#fff"/>
      </g>
      <path d="m491.766,67.779c1.33,0,2.624-.137,3.876-.405v-8.695c-1.199.489-2.505.751-3.876.751-5.755,0-10.437-4.681-10.437-10.437,0-.924.119-1.825.352-2.684h-8.51c-.125.877-.191,1.771-.191,2.684,0,10.359,8.427,18.786,18.786,18.786Z" fill="#c2cbf2"/>
    </g>
    <g>
      <path d="m443.63,91.346c0,.724-.178,1.507-.535,2.349s-.917,1.669-1.682,2.48c-.765.811-1.741,1.47-2.93,1.976-1.188.506-2.573.76-4.154.76-1.199,0-2.289-.114-3.271-.341-.982-.228-1.873-.582-2.674-1.062-.801-.481-1.537-1.113-2.209-1.899-.6-.713-1.111-1.512-1.535-2.395-.424-.884-.742-1.826-.954-2.829-.212-1.002-.318-2.067-.318-3.193,0-1.83.266-3.467.799-4.914.532-1.447,1.295-2.684,2.286-3.713.992-1.028,2.155-1.811,3.488-2.348,1.333-.537,2.754-.806,4.263-.806,1.84,0,3.477.367,4.914,1.1,1.436.734,2.537,1.641,3.302,2.72.764,1.08,1.147,2.101,1.147,3.062,0,.527-.186.992-.558,1.395-.372.403-.822.605-1.349.605-.589,0-1.031-.14-1.325-.419-.294-.279-.623-.759-.984-1.441-.6-1.126-1.305-1.969-2.116-2.527-.811-.558-1.811-.837-2.999-.837-1.891,0-3.398.719-4.519,2.155-1.121,1.436-1.682,3.478-1.682,6.123,0,1.767.247,3.237.744,4.41.496,1.173,1.199,2.049,2.108,2.627.909.579,1.974.868,3.193.868,1.323,0,2.442-.328,3.356-.984.914-.656,1.604-1.62,2.069-2.891.196-.599.439-1.088.728-1.465.289-.377.754-.566,1.395-.566.548,0,1.018.191,1.411.574.393.382.589.858.589,1.426Z" fill="#fdfffe"/>
      <path d="m465.037,91.703c0,1.374-.354,2.61-1.062,3.705-.708,1.095-1.744,1.953-3.108,2.573-1.364.62-2.981.93-4.852.93-2.242,0-4.092-.424-5.549-1.271-1.034-.61-1.873-1.424-2.519-2.442-.646-1.018-.969-2.007-.969-2.968,0-.558.193-1.036.581-1.434.388-.398.881-.597,1.48-.597.486,0,.896.155,1.232.465.335.31.622.77.86,1.379.289.724.602,1.328.938,1.814.335.486.808.886,1.418,1.201.61.315,1.411.473,2.402.473,1.365,0,2.473-.318,3.325-.954.853-.635,1.279-1.428,1.279-2.379,0-.754-.23-1.366-.69-1.837-.459-.47-1.054-.829-1.782-1.077-.729-.248-1.703-.512-2.922-.79-1.633-.382-3-.83-4.1-1.341-1.101-.512-1.974-1.209-2.62-2.093-.646-.884-.969-1.982-.969-3.294,0-1.25.341-2.361,1.023-3.332s1.669-1.718,2.961-2.24c1.292-.522,2.811-.782,4.557-.782,1.395,0,2.601.173,3.619.519,1.018.346,1.863.806,2.535,1.379.672.574,1.163,1.176,1.473,1.806.31.63.465,1.245.465,1.844,0,.548-.194,1.041-.582,1.48-.388.439-.871.659-1.449.659-.527,0-.928-.132-1.201-.395-.274-.264-.571-.695-.891-1.295-.413-.858-.909-1.527-1.488-2.007-.579-.481-1.509-.721-2.79-.721-1.189,0-2.147.261-2.875.782-.729.522-1.093,1.15-1.093,1.884,0,.454.124.847.372,1.178.248.33.589.615,1.024.852.434.238.873.424,1.317.558.444.134,1.178.33,2.201.589,1.282.3,2.442.63,3.48.992,1.039.362,1.922.801,2.651,1.318.728.517,1.297,1.17,1.705,1.961.408.79.612,1.759.612,2.906Z" fill="#fdfffe"/>
      <path d="m486.211,91.703c0,1.374-.354,2.61-1.062,3.705-.708,1.095-1.744,1.953-3.108,2.573-1.364.62-2.981.93-4.852.93-2.242,0-4.092-.424-5.549-1.271-1.033-.61-1.873-1.424-2.519-2.442-.646-1.018-.969-2.007-.969-2.968,0-.558.193-1.036.581-1.434.388-.398.881-.597,1.48-.597.486,0,.896.155,1.232.465.335.31.622.77.86,1.379.289.724.602,1.328.938,1.814.335.486.808.886,1.418,1.201.61.315,1.411.473,2.402.473,1.365,0,2.473-.318,3.325-.954.853-.635,1.279-1.428,1.279-2.379,0-.754-.23-1.366-.69-1.837-.459-.47-1.054-.829-1.782-1.077-.729-.248-1.703-.512-2.922-.79-1.633-.382-3-.83-4.1-1.341-1.101-.512-1.974-1.209-2.62-2.093-.646-.884-.969-1.982-.969-3.294,0-1.25.341-2.361,1.023-3.332s1.669-1.718,2.961-2.24c1.292-.522,2.811-.782,4.557-.782,1.395,0,2.601.173,3.619.519,1.018.346,1.863.806,2.534,1.379.672.574,1.163,1.176,1.473,1.806.31.63.465,1.245.465,1.844,0,.548-.194,1.041-.582,1.48s-.871.659-1.449.659c-.527,0-.928-.132-1.201-.395-.274-.264-.571-.695-.891-1.295-.413-.858-.909-1.527-1.488-2.007-.579-.481-1.509-.721-2.79-.721-1.189,0-2.147.261-2.876.782-.729.522-1.093,1.15-1.093,1.884,0,.454.124.847.372,1.178.248.33.589.615,1.024.852.434.238.873.424,1.317.558.444.134,1.178.33,2.201.589,1.282.3,2.442.63,3.48.992,1.039.362,1.922.801,2.651,1.318.728.517,1.297,1.17,1.705,1.961.408.79.612,1.759.612,2.906Z" fill="#fdfffe"/>
    </g>
  </g>
  <g>
    <g>
      <path d="m896.455,196.797h-66.685c-5.534,0-10.036-4.502-10.036-10.036v-66.686c0-5.534,4.502-10.036,10.036-10.036h66.685c5.534,0,10.036,4.502,10.036,10.036v66.686c0,5.534-4.502,10.036-10.036,10.036Zm-66.685-85.8c-5.006,0-9.078,4.072-9.078,9.077v66.686c0,5.005,4.072,9.077,9.078,9.077h66.685c5.005,0,9.078-4.072,9.078-9.077v-66.686c0-5.005-4.072-9.077-9.078-9.077h-66.685Z" fill="url(#gradient_main-7)"/>
      <rect x="829.799" y="120.105" width="85.8" height="85.8" rx="9.557" ry="9.557" fill="url(#gradient_main-8)"/>
      <g>
        <path d="m843.52,199.613c0-.708.574-1.281,1.281-1.281s1.281.574,1.281,1.281-.574,1.281-1.281,1.281-1.281-.574-1.281-1.281Z" fill="#fff"/>
        <path d="m843.52,195.343c0-.707.574-1.281,1.281-1.281s1.281.574,1.281,1.281-.574,1.281-1.281,1.281-1.281-.574-1.281-1.281Z" fill="#fff"/>
        <path d="m840.104,199.613c0-.708.574-1.281,1.281-1.281s1.281.574,1.281,1.281-.574,1.281-1.281,1.281-1.281-.574-1.281-1.281Z" fill="#fff"/>
        <path d="m840.104,195.343c0-.707.574-1.281,1.281-1.281s1.281.574,1.281,1.281-.574,1.281-1.281,1.281-1.281-.574-1.281-1.281Z" fill="#fff"/>
        <path d="m836.688,199.613c0-.708.574-1.281,1.281-1.281s1.281.574,1.281,1.281-.574,1.281-1.281,1.281-1.281-.574-1.281-1.281Z" fill="#fff"/>
        <path d="m836.688,195.343c0-.707.574-1.281,1.281-1.281s1.281.574,1.281,1.281-.574,1.281-1.281,1.281-1.281-.574-1.281-1.281Z" fill="#fff"/>
      </g>
      <path d="m911.528,142.65c1.397,0,2.756-.144,4.071-.426v-9.131c-1.259.514-2.63.789-4.071.789-6.044,0-10.96-4.916-10.96-10.96,0-.971.125-1.916.37-2.818h-8.937c-.132.921-.2,1.86-.2,2.818,0,10.878,8.849,19.728,19.728,19.728Z" fill="#c2cbf2"/>
    </g>
    <g>
      <path d="m841.632,155.865v5.239h7.996v-5.239c0-.748.169-1.31.505-1.684.337-.374.78-.561,1.329-.561.557,0,1.008.185,1.353.555.345.37.518.933.518,1.69v14.407c0,.756-.175,1.322-.524,1.696-.35.374-.799.561-1.347.561-.557,0-1.002-.19-1.335-.568-.333-.378-.499-.942-.499-1.69v-6.15h-7.996v6.15c0,.756-.175,1.322-.524,1.696-.35.374-.799.561-1.347.561-.557,0-1.002-.19-1.335-.568-.333-.378-.499-.942-.499-1.69v-14.407c0-.748.164-1.31.493-1.684.329-.374.775-.561,1.341-.561.557,0,1.008.185,1.353.555.345.37.518.933.518,1.69Z" fill="#fdfffe"/>
      <path d="m869.186,156.988h-4.041v13.285c0,.765-.171,1.333-.512,1.702-.341.37-.782.555-1.322.555-.549,0-.996-.187-1.341-.561-.345-.374-.518-.94-.518-1.696v-13.285h-4.041c-.632,0-1.102-.139-1.409-.418-.308-.279-.461-.647-.461-1.104,0-.474.16-.848.48-1.123.32-.274.783-.412,1.391-.412h11.775c.64,0,1.116.141,1.428.424.312.282.468.653.468,1.11s-.159.825-.474,1.104c-.317.278-.791.418-1.422.418Z" fill="#fdfffe"/>
      <path d="m879.452,169.461l-2.931-11.65v12.623c0,.699-.156,1.222-.468,1.572-.312.35-.726.524-1.241.524-.499,0-.907-.173-1.223-.518-.316-.345-.473-.871-.473-1.578v-14.469c0-.799.208-1.337.624-1.616.416-.278.977-.418,1.684-.418h1.148c.69,0,1.191.063,1.503.187.312.125.543.35.693.674.15.325.32.853.511,1.584l2.657,10.017,2.657-10.017c.191-.731.362-1.26.511-1.584.15-.324.381-.549.692-.674.312-.124.813-.187,1.503-.187h1.148c.707,0,1.268.139,1.684.418.416.279.624.817.624,1.616v14.469c0,.699-.156,1.222-.468,1.572-.312.35-.73.524-1.254.524-.491,0-.894-.175-1.21-.524-.316-.349-.474-.873-.474-1.572v-12.623l-2.931,11.65c-.192.757-.348,1.312-.468,1.665-.121.354-.343.676-.667.967-.325.291-.774.437-1.347.437-.432,0-.799-.094-1.097-.281-.299-.187-.533-.426-.699-.717-.167-.291-.297-.613-.393-.967-.096-.353-.194-.721-.293-1.104Z" fill="#fdfffe"/>
      <path d="m898.187,155.865v13.309h7.51c.598,0,1.058.146,1.378.437.32.291.481.657.481,1.097,0,.449-.158.813-.474,1.092-.316.279-.778.418-1.384.418h-8.944c-.807,0-1.386-.179-1.74-.536-.353-.358-.53-.936-.53-1.734v-14.083c0-.748.168-1.31.505-1.684.337-.374.78-.561,1.328-.561.557,0,1.008.185,1.353.555.345.37.518.933.518,1.69Z" fill="#fdfffe"/>
    </g>
  </g>
  <g>
    <g>
      <path d="m576.609,341.024h-81.356c-6.713,0-12.175-5.462-12.175-12.175v-81.356c0-6.713,5.462-12.175,12.175-12.175h81.356c6.713,0,12.175,5.462,12.175,12.175v81.356c0,6.713-5.462,12.175-12.175,12.175Zm-81.356-104.675c-6.145,0-11.144,4.999-11.144,11.144v81.356c0,6.145,4.999,11.144,11.144,11.144h81.356c6.145,0,11.144-4.999,11.144-11.144v-81.356c0-6.145-4.999-11.144-11.144-11.144h-81.356Z" fill="url(#gradient_main-9)"/>
      <rect x="473.797" y="246.662" width="104.675" height="104.675" rx="11.659" ry="11.659" fill="url(#gradient_main-10)"/>
      <g>
        <path d="m490.536,254.337c0,.863.7,1.563,1.563,1.563s1.563-.7,1.563-1.563-.7-1.563-1.563-1.563-1.563.7-1.563,1.563Z" fill="#fff"/>
        <circle cx="492.099" cy="259.546" r="1.563" fill="#fff"/>
        <path d="m486.369,254.337c0,.863.7,1.563,1.563,1.563s1.563-.7,1.563-1.563-.7-1.563-1.563-1.563-1.563.7-1.563,1.563Z" fill="#fff"/>
        <circle cx="487.932" cy="259.546" r="1.563" fill="#fff"/>
        <path d="m482.201,254.337c0,.863.7,1.563,1.563,1.563s1.563-.7,1.563-1.563-.7-1.563-1.563-1.563-1.563.7-1.563,1.563Z" fill="#fff"/>
        <path d="m482.201,259.546c0,.863.7,1.563,1.563,1.563s1.563-.7,1.563-1.563-.7-1.563-1.563-1.563-1.563.7-1.563,1.563Z" fill="#fff"/>
      </g>
      <path d="m573.505,323.831c1.704,0,3.362.176,4.966.519v11.14c-1.536-.627-3.209-.963-4.966-.963-7.373,0-13.371,5.998-13.371,13.371,0,1.184.153,2.338.451,3.438h-10.903c-.161-1.123-.245-2.269-.245-3.438,0-13.272,10.796-24.068,24.068-24.068Z" fill="#c2cbf2"/>
    </g>
    <text transform="translate(505.83 313.396)" fill="#fff" font-family="Nunito-ExtraBold, Nunito" font-size="42.486" font-weight="700"><tspan x="0" y="0">JS</tspan></text>
  </g>
  <g>
    <g>
      <polygon points="919.107 549.013 968.778 339.53 854.318 339.53 798.903 549.013 919.107 549.013" fill="#d6e6f2"/>
      <path d="m754.975,527.417h90.704v21.596h-90.704c-5.96,0-10.798-4.838-10.798-10.798h0c0-5.96,4.838-10.798,10.798-10.798Z" fill="#d6e6f2"/>
      <path d="m968.778,339.53l-44.553,187.887-5.118,21.596s-3.131-9.07-5.205-21.596c-3.089-18.659-3.823-44.963,11.683-60.469,0,0-4.319-60.47,12.958-75.587,0,0-6.479-51.831,30.235-51.831Z" fill="#b9d7ea"/>
      <polygon points="924.225 527.417 919.107 549.013 845.679 549.013 845.679 527.417 924.225 527.417" fill="#b9d7ea"/>
      <rect x="830.562" y="549.013" width="19.437" height="84.225" fill="#d0dcdb"/>
      <rect x="785.21" y="624.6" width="107.981" height="8.638" fill="#8c9695"/>
      <path d="m802.487,640.797c0,4.175-3.384,7.559-7.559,7.559s-7.559-3.384-7.559-7.559,3.384-7.559,7.559-7.559,7.559,3.384,7.559,7.559Z" fill="#232625"/>
      <path d="m860.797,640.797c0,4.175-3.384,7.559-7.559,7.559s-7.559-3.384-7.559-7.559,3.384-7.559,7.559-7.559,7.559,3.384,7.559,7.559Z" fill="#232625"/>
      <path d="m891.031,640.797c0,4.175-3.384,7.559-7.559,7.559s-7.559-3.384-7.559-7.559,3.384-7.559,7.559-7.559,7.559,3.384,7.559,7.559Z" fill="#232625"/>
      <path d="m830.562,549.013v22.745s8.91,2.095,10.798,9.649c2.16,8.639,8.639,7.72,8.639,7.72v-40.114h-19.437Z" fill="#969e9f"/>
    </g>
    <g>
      <path d="m806.682,478.98l8.44-118.819s25.32-18.28,39.387-15.233c14.067,3.047,25.433,8.083,33.76,12.187,9.233,4.55,8.44,121.866,8.44,121.866h-90.027Z" fill="#111" opacity=".99"/>
      <path d="m857.205,397.451c-.188-.063-.376-.122-.563-.177.031-.129.059-.257.087-.386.428-2.073.146-3.739-.803-4.289-.915-.525-2.407.021-3.917,1.336-.15.129-.296.264-.435.4-.094-.09-.191-.181-.289-.268-1.583-1.405-3.169-1.997-4.118-1.444-.911.529-1.183,2.097-.8,4.059.038.195.08.386.129.581-.223.063-.442.132-.647.205-1.857.643-3.19,1.659-3.19,2.71,0,1.085,1.419,2.174,3.35,2.835.157.052.313.104.473.15-.052.209-.097.414-.139.626-.365,1.93-.08,3.461.831,3.986.939.543,2.518-.014,4.056-1.36.122-.108.243-.219.365-.337.153.15.313.292.473.431,1.489,1.28,2.96,1.798,3.868,1.273.939-.543,1.245-2.188.849-4.191-.031-.153-.066-.31-.104-.47.111-.031.219-.066.327-.101,2.007-.664,3.461-1.739,3.461-2.842,0-1.054-1.37-2.077-3.263-2.727h0Zm-4.706-2.953c1.294-1.127,2.501-1.569,3.05-1.252.588.337.814,1.701.445,3.492-.024.118-.049.233-.08.348-.772-.174-1.555-.299-2.341-.369-.452-.647-.946-1.266-1.482-1.847.136-.129.268-.25.407-.372Zm-4.024,7.485c.177.303.358.605.55.901-.543-.059-1.082-.146-1.614-.261.153-.501.344-1.019.567-1.548.16.306.323.609.497.908h0Zm-1.054-4.184c.501-.111,1.033-.202,1.586-.271-.184.289-.365.584-.536.883-.17.296-.337.598-.494.904-.219-.518-.403-1.026-.557-1.517h0Zm.953,2.397c.23-.48.48-.95.744-1.412s.55-.911.849-1.353c.522-.038,1.054-.059,1.597-.059s1.078.021,1.597.059c.296.438.577.887.845,1.346s.518.929.755,1.405c-.233.48-.483.953-.751,1.419-.264.463-.546.911-.842,1.357-.518.038-1.057.056-1.604.056s-1.075-.017-1.586-.049c-.303-.442-.588-.894-.856-1.357s-.515-.932-.748-1.412h0Zm6.282,1.781c.177-.306.344-.616.508-.929.223.504.417,1.016.588,1.541-.539.122-1.085.216-1.635.278.188-.292.365-.591.539-.89h0Zm.501-2.661c-.163-.306-.33-.612-.504-.911-.17-.296-.348-.588-.532-.877.56.07,1.096.163,1.597.278-.16.515-.348,1.016-.56,1.51Zm-3.586-3.913c.365.397.71.814,1.03,1.245-.689-.031-1.381-.031-2.07,0,.341-.449.692-.866,1.04-1.245Zm-4.035-2.132c.584-.341,1.882.146,3.249,1.357.087.077.174.16.264.243-.539.581-1.037,1.2-1.492,1.847-.786.07-1.565.191-2.337.362-.045-.177-.083-.358-.122-.539-.327-1.684-.111-2.953.438-3.27h0Zm-.852,9.169c-.146-.042-.289-.087-.431-.136-.741-.233-1.583-.602-2.191-1.085-.351-.243-.588-.619-.654-1.04,0-.637,1.099-1.45,2.685-2.004.198-.07.4-.132.602-.191.237.755.522,1.496.852,2.212-.334.727-.623,1.478-.863,2.244Zm4.056,3.409c-.574.525-1.238.943-1.962,1.228-.386.184-.831.202-1.228.045-.553-.32-.783-1.548-.47-3.2.038-.195.08-.39.129-.581.779.167,1.565.282,2.362.341.459.65.963,1.273,1.503,1.857-.111.108-.223.212-.334.31h0Zm.852-.845c-.355-.383-.71-.807-1.054-1.263.334.014.678.021,1.026.021.358,0,.71-.007,1.057-.024-.32.442-.664.863-1.03,1.266Zm4.546,1.043c-.031.424-.24.821-.574,1.089-.553.32-1.732-.097-3.005-1.19-.146-.125-.292-.261-.442-.4.532-.588,1.023-1.21,1.468-1.864.797-.066,1.59-.188,2.372-.365.035.143.066.285.094.424.17.751.198,1.534.087,2.306h0Zm.633-3.739c-.097.031-.195.063-.296.09-.243-.758-.543-1.499-.887-2.219.334-.71.616-1.44.852-2.188.181.052.355.108.522.163,1.621.557,2.758,1.384,2.758,2.017,0,.682-1.214,1.562-2.95,2.136Zm-5.207-.522c.88,0,1.593-.713,1.593-1.593s-.713-1.593-1.593-1.593-1.593.713-1.593,1.593.713,1.593,1.593,1.593h0Z" fill="#149eca"/>
      <path d="m765.66,364.494s-10.806-34.914.911-28.775c5.874,3.078,8.833,14.852,8.833,14.852,0,0,2.138-8.576,4.347-4.426,2.209,4.15-5.531,17.728-5.531,17.728l-8.559.621Z" fill="url(#linear-gradient)"/>
      <polygon points="837.628 347.974 812.308 357.114 798.587 521.306 836.607 512.53 837.628 347.974" fill="#4f46e5" opacity=".99"/>
      <path d="m812.308,411.953l-19.937,40.482c-2.354,4.779-6.52,8.385-11.459,9.244-5.617.977-12.093-1.361-13.617-16.213-2.813-27.42-2.813-82.26-2.813-82.26h11.253l8.44,42.653s16.88-48.746,28.133-48.746v54.84Z" fill="#4f46e5" opacity=".99"/>
      <g>
        <path d="m832.344,299.494s-14.381-4.358-11.601-18.466c2.78-14.108,16.54-7.015,19.028-5.945,2.488,1.07,13.356-.555,15.625-1.111,2.269-.555,10.099-1.308,11.856,7.687,1.757,8.995,1.758,29.007-7.39,32.02-9.148,3.012-27.519-14.185-27.519-14.185Z" fill="#11163d"/>
        <path d="m860.247,315.522l3.361,32.744c.213,2.072-.749,4.082-2.442,5.074-5.247,3.076-14.45,5.655-20.43-2.624-.968-1.34-.804-3.291-.648-4.984l2.631-28.505,17.528-1.705Z" fill="url(#linear-gradient-2)"/>
        <path d="m828.556,294.481s-7.536,41.609,14.017,40.34c21.553-1.27,17.71-19.696,17.71-19.696,0,0,6.074-1.744,4.061-7.965-2.013-6.222-8.544,2.477-8.544,2.477,0,0,.804-16.723-7.356-16.405-8.16.318-12.734,5.826-19.888,1.249Z" fill="url(#linear-gradient-3)"/>
        <path d="m835.139,315.3c-.766-.083-1.365-.394-1.791-.931-1.363-1.719-.316-5.089-.271-5.232.066-.208.274-.317.467-.247.192.072.294.298.229.506-.01.031-.955,3.082.134,4.455.496.624,1.382.817,2.636.571.2-.037.391.105.427.321.036.216-.097.424-.296.463-.569.111-1.081.142-1.535.093Z" fill="#bc8877"/>
        <path d="m839.787,324.22c-.008.001-.016.003-.025.005-1.632.297-2.869-.763-2.921-.809-.158-.138-.183-.388-.056-.56.128-.171.358-.198.516-.06.016.013,1.048.883,2.348.642.003,0,.007-.001.01-.002,1.019-.193,1.951-1.009,2.77-2.425.108-.186.335-.243.507-.126.172.117.224.363.116.549-.934,1.616-2.032,2.553-3.266,2.787Z" fill="#bc8877"/>
        <path d="m831.485,306.256c-.061.657-.437,1.153-.842,1.109-.404-.044-.683-.611-.622-1.268.061-.657.437-1.153.841-1.11.404.044.683.611.622,1.268Z" fill="#bc8877"/>
        <path d="m842.499,307.048c-.061.657-.437,1.153-.841,1.11-.404-.044-.683-.612-.622-1.268.061-.657.438-1.153.842-1.109.404.044.683.611.622,1.268Z" fill="#bc8877"/>
      </g>
      <polygon points="796.988 622.692 802.312 639.934 785.069 645.258 779.124 626.505 796.988 622.692" fill="#ffd3c4"/>
      <path d="m802.58,636.291l8.346,16-49.242,22.016s-8.043-4.456,13.293-21.478c3.034-2.42,5.229-5.734,6.202-9.491l.516-1.992,20.886-5.056Z" fill="#5b90ef"/>
      <path d="m802.086,630.964l-23.683,4.737-49.423-130.904c-4.388-11.623,4.045-24.089,16.466-24.342l97.18-1.974-4.226,49.857-61.576-1.579,25.262,104.204Z" fill="#262141"/>
      <polygon points="762.117 640.265 758.86 658.014 741.11 654.757 744.516 635.381 762.117 640.265" fill="#ffd3c4"/>
      <path d="m760.783,654.908l-.003,18.046-53.841-3.263s-5.069-7.671,21.721-12.891c3.809-.742,7.288-2.664,9.889-5.545l1.378-1.527,20.855,5.181Z" fill="#5b90ef"/>
      <path d="m895.238,477.815s0,42.629-31.577,50.523h-59.997l-41.05,116.835-22.104-3.158,28.052-152.069c1.131-6.133,6.441-10.61,12.677-10.689l113.999-1.443Z" fill="#332c57"/>
      <polygon points="764.652 511.143 748.724 557.091 753.73 570.351 764.652 511.143" fill="#1d1931"/>
      <polygon points="865.762 347.974 891.082 357.114 910.775 542.959 871.388 542.959 865.762 347.974" fill="#4f46e5" opacity=".99"/>
      <path d="m887.575,356.684s8.23-2.025,16.833,11.48c6.318,9.918,21.783,41.18,29.55,57.085,2.904,5.946,2.932,13.017.079,18.992-8.917,18.674-28.021,58.608-29.641,61.394-2.12,3.646-10.723-9.859-10.723-9.859l18.086-51.313-20.322-41.865-3.862-45.914Z" fill="#4f46e5" opacity=".99"/>
      <rect x="896.734" y="489.365" width="3.234" height="24.257" transform="translate(-91.472 782.173) rotate(-45.003)" fill="#3030a5" opacity=".99"/>
      <polygon points="901.556 455.954 893.311 496.133 902.978 469.376 901.556 455.954" fill="#3030a5"/>
    </g>
    <g>
      <rect x="541.38" y="479.911" width="82.324" height="194.376" fill="#e0edfa"/>
      <rect x="623.703" y="479.911" width="73.177" height="194.376" fill="#b9c3ce"/>
      <rect x="529.946" y="466.19" width="331.582" height="13.721" fill="#a8b2bb"/>
      <rect x="861.527" y="466.19" width="107.478" height="13.721" fill="#70777d"/>
      <polygon points="899.236 479.911 895.051 498.205 857.823 660.566 857.297 662.853 854.667 674.287 847.807 674.287 850.071 662.853 850.528 660.566 882.749 498.205 886.385 479.911 899.236 479.911" fill="#b9c3ce"/>
      <polygon points="988.421 674.287 981.56 674.287 978.931 662.853 978.404 660.566 941.176 498.205 936.991 479.911 949.843 479.911 953.479 498.205 985.699 660.566 986.157 662.853 988.421 674.287" fill="#b9c3ce"/>
      <polygon points="886.385 479.911 899.236 479.911 895.051 498.205 882.749 498.205 886.385 479.911" fill="#788997"/>
      <polygon points="953.479 498.205 941.176 498.205 936.991 479.911 949.843 479.911 953.479 498.205" fill="#788997"/>
      <path d="m633.627,354.139h129.569v96.044h-129.569c-4.215,0-7.637-3.422-7.637-7.637v-80.77c0-4.215,3.422-7.637,7.637-7.637Z" fill="#d6e6f2"/>
      <path d="m763.196,354.139h2.439c2.44,0,4.421,1.981,4.421,4.421v87.201c0,2.44-1.981,4.422-4.422,4.422h-2.439v-96.044h0Z" fill="#b9d7ea"/>
      <polygon points="685.446 420.455 673.964 466.19 696.88 466.19 706.027 420.455 685.446 420.455" fill="#769fcd"/>
      <polygon points="706.027 466.19 696.88 466.19 706.027 420.455 706.027 466.19" fill="#59779a"/>
      <path d="m710.601,391.87c0,8.209-6.655,14.864-14.864,14.864s-14.864-6.655-14.864-14.864,6.655-14.864,14.864-14.864,14.864,6.655,14.864,14.864Z" fill="#fff"/>
      <polygon points="623.703 479.911 696.88 543.941 696.88 479.911 623.703 479.911" fill="#8b929b"/>
      <polygon points="850.528 660.566 857.823 660.566 857.297 662.853 850.071 662.853 850.528 660.566" fill="#e3e4e6"/>
      <polygon points="986.157 662.853 978.931 662.853 978.404 660.566 985.699 660.566 986.157 662.853" fill="#e3e4e6"/>
      <rect x="795.211" y="441.383" width="18.017" height="25.224" fill="#b9d7ea"/>
      <path d="m812.986,463.904c-5.331,0-9.667-4.336-9.667-9.667s4.336-9.667,9.667-9.667,9.667,4.336,9.667,9.667-4.336,9.667-9.667,9.667Zm0-17.722c-4.442,0-8.056,3.614-8.056,8.056s3.614,8.056,8.056,8.056,8.056-3.614,8.056-8.056-3.614-8.056-8.056-8.056Z" fill="#b9d7ea"/>
    </g>
    <g>
      <g>
        <path d="m540.088,465.281h71.613c2.234,0,4.045-1.608,4.045-3.592v-5.85c0-1.984-1.811-3.592-4.045-3.592h-71.613" fill="#fff"/>
        <path d="m615.746,455.959v3.397c0-1.625-1.811-2.942-4.045-2.942h-71.613v-3.397h71.613c2.234,0,4.045,1.317,4.045,2.942Z" fill="#ad9f6e" opacity=".3"/>
        <path d="m611.234,466.169h-70.917c-.385,0-.696-.277-.696-.618v-.541c0-.342.312-.618.696-.618h70.917c1.681,0,3.044-1.21,3.044-2.703v-5.85c0-1.493-1.363-2.703-3.044-2.703h-70.917c-.385,0-.696-.277-.696-.618v-.541c0-.341.312-.618.696-.618h70.917c2.786,0,5.045,2.006,5.045,4.481v5.85c0,2.475-2.259,4.481-5.046,4.481Z" fill="#b9d7ea"/>
        <polygon points="607.606 463.325 604.871 461.193 602.069 463.325 602.069 457.875 607.606 457.875 607.606 463.325" fill="#769fcd"/>
      </g>
      <g>
        <path d="m531.41,450.35h71.613c2.234,0,4.045-1.818,4.045-4.061v-6.614c0-2.243-1.811-4.061-4.045-4.061h-71.613" fill="#fff"/>
        <path d="m607.068,439.811v3.841c0-1.837-1.811-3.327-4.045-3.327h-71.613v-3.841h71.613c2.235,0,4.045,1.489,4.045,3.327Z" fill="#ad9f6e" opacity=".3"/>
        <path d="m602.556,451.355h-70.917c-.385,0-.696-.313-.696-.699v-.611c0-.386.312-.699.696-.699h70.917c1.681,0,3.044-1.368,3.044-3.056v-6.614c0-1.688-1.363-3.056-3.044-3.056h-70.917c-.385,0-.696-.313-.696-.699v-.611c0-.386.312-.699.696-.699h70.917c2.787,0,5.046,2.268,5.046,5.066v6.614c0,2.798-2.259,5.066-5.046,5.066Z" fill="#c1c1f4"/>
        <polygon points="598.929 448.14 596.193 445.728 593.391 448.14 593.391 441.977 598.929 441.977 598.929 448.14" fill="#4f46e5"/>
      </g>
      <g>
        <path d="m546.507,433.742h71.613c2.234,0,4.045-1.572,4.045-3.511v-5.718c0-1.939-1.811-3.511-4.045-3.511h-71.613" fill="#fff"/>
        <path d="m622.165,424.63v3.321c0-1.589-1.811-2.876-4.045-2.876h-71.613v-3.32h71.613c2.234,0,4.045,1.287,4.045,2.876Z" fill="#ad9f6e" opacity=".3"/>
        <path d="m617.653,434.61h-70.917c-.385,0-.696-.271-.696-.604v-.529c0-.334.312-.604.696-.604h70.917c1.681,0,3.044-1.183,3.044-2.642v-5.718c0-1.459-1.363-2.642-3.044-2.642h-70.917c-.385,0-.696-.271-.696-.604v-.529c0-.334.312-.604.696-.604h70.917c2.787,0,5.046,1.961,5.046,4.38v5.718c0,2.419-2.259,4.38-5.046,4.38Z" fill="#769fcd"/>
      </g>
      <g>
        <path d="m537.486,419.244h71.613c2.234,0,4.045-1.608,4.045-3.592v-5.85c0-1.984-1.811-3.592-4.045-3.592h-71.613" fill="#fff"/>
        <path d="m613.145,409.922v3.397c0-1.625-1.811-2.942-4.045-2.942h-71.613v-3.397h71.613c2.234,0,4.045,1.317,4.045,2.942Z" fill="#ad9f6e" opacity=".3"/>
        <path d="m608.633,420.133h-70.917c-.385,0-.696-.277-.696-.618v-.541c0-.342.312-.618.696-.618h70.917c1.681,0,3.044-1.21,3.044-2.703v-5.85c0-1.493-1.363-2.703-3.044-2.703h-70.917c-.385,0-.696-.277-.696-.618v-.541c0-.342.312-.618.696-.618h70.917c2.786,0,5.046,2.006,5.046,4.481v5.85c0,2.475-2.259,4.481-5.046,4.481Z" fill="#c1c1f4"/>
        <polygon points="605.005 417.289 602.269 415.156 599.467 417.289 599.467 411.838 605.005 411.838 605.005 417.289" fill="#4f46e5"/>
      </g>
    </g>
  </g>
  <g>
    <rect x="541.396" y="96.008" width="168.576" height="114.798" rx="7.612" ry="7.612" fill="url(#gradient_main-11)"/>
    <g>
      <rect x="579.467" y="178.198" width="94.76" height="21.058" rx="4" ry="4" fill="#c2cbf2" opacity=".5"/>
      <g>
        <path d="m591.454,188.242c.491-.227.959-.453,1.405-.68.446-.227.801-.393,1.065-.499.264-.106.476-.159.634-.159.264,0,.493.089.685.266.193.178.289.399.289.663,0,.151-.047.308-.142.47-.095.162-.195.266-.3.312-.974.385-2.047.665-3.218.838.212.197.472.457.782.782.31.325.472.499.487.521.113.159.272.355.476.589.204.234.346.418.425.55.079.132.119.293.119.482,0,.242-.091.453-.272.635s-.416.272-.703.272-.61-.223-.969-.669c-.359-.446-.821-1.246-1.388-2.402-.574,1.042-.959,1.73-1.156,2.062-.196.333-.385.584-.566.753-.181.17-.389.255-.623.255-.28,0-.512-.096-.697-.289-.185-.193-.278-.398-.278-.617,0-.204.038-.359.113-.465.695-.944,1.42-1.763,2.175-2.458-.634-.098-1.201-.208-1.699-.329-.499-.121-1.027-.298-1.586-.532-.091-.045-.18-.149-.266-.312-.087-.162-.13-.312-.13-.448,0-.264.096-.485.289-.663.193-.177.414-.266.663-.266.181,0,.408.055.68.164.272.11.618.268,1.037.476.419.208.897.44,1.433.697-.098-.476-.18-1.021-.244-1.637-.064-.615-.096-1.036-.096-1.263,0-.279.089-.519.266-.72.177-.2.406-.3.685-.3.272,0,.497.1.674.3.177.2.266.467.266.799,0,.091-.013.27-.04.538-.027.268-.064.593-.113.974-.049.382-.104.818-.164,1.309Z" fill="#c2cbf2"/>
        <path d="m606.257,188.242c.491-.227.959-.453,1.405-.68.446-.227.801-.393,1.065-.499.264-.106.476-.159.634-.159.264,0,.493.089.685.266.193.178.289.399.289.663,0,.151-.047.308-.142.47-.095.162-.195.266-.3.312-.974.385-2.047.665-3.218.838.212.197.472.457.782.782.31.325.472.499.487.521.113.159.272.355.476.589.204.234.345.418.425.55.079.132.119.293.119.482,0,.242-.091.453-.272.635s-.415.272-.702.272-.61-.223-.969-.669c-.359-.446-.821-1.246-1.388-2.402-.574,1.042-.959,1.73-1.156,2.062-.196.333-.385.584-.566.753s-.389.255-.623.255c-.28,0-.512-.096-.697-.289-.185-.193-.278-.398-.278-.617,0-.204.038-.359.113-.465.695-.944,1.42-1.763,2.175-2.458-.634-.098-1.201-.208-1.699-.329-.499-.121-1.027-.298-1.586-.532-.091-.045-.18-.149-.266-.312-.087-.162-.13-.312-.13-.448,0-.264.096-.485.289-.663.193-.177.414-.266.663-.266.181,0,.408.055.68.164.272.11.618.268,1.037.476.419.208.897.44,1.433.697-.098-.476-.18-1.021-.244-1.637-.064-.615-.096-1.036-.096-1.263,0-.279.089-.519.266-.72.177-.2.406-.3.685-.3.272,0,.497.1.674.3.177.2.266.467.266.799,0,.091-.013.27-.04.538-.027.268-.064.593-.113.974-.049.382-.104.818-.164,1.309Z" fill="#c2cbf2"/>
        <path d="m621.06,188.242c.491-.227.959-.453,1.405-.68.446-.227.8-.393,1.065-.499.264-.106.476-.159.634-.159.264,0,.493.089.685.266.193.178.289.399.289.663,0,.151-.047.308-.142.47-.095.162-.195.266-.3.312-.974.385-2.047.665-3.218.838.212.197.472.457.782.782.31.325.472.499.487.521.113.159.272.355.476.589.204.234.346.418.425.55.079.132.119.293.119.482,0,.242-.091.453-.272.635-.181.181-.416.272-.702.272s-.61-.223-.969-.669c-.359-.446-.821-1.246-1.388-2.402-.574,1.042-.959,1.73-1.156,2.062-.196.333-.385.584-.566.753-.181.17-.389.255-.623.255-.28,0-.512-.096-.697-.289-.185-.193-.278-.398-.278-.617,0-.204.038-.359.113-.465.695-.944,1.42-1.763,2.175-2.458-.634-.098-1.201-.208-1.699-.329-.499-.121-1.027-.298-1.586-.532-.091-.045-.18-.149-.266-.312-.087-.162-.13-.312-.13-.448,0-.264.096-.485.289-.663.193-.177.414-.266.663-.266.181,0,.408.055.68.164.272.11.618.268,1.037.476.419.208.897.44,1.433.697-.098-.476-.18-1.021-.244-1.637-.064-.615-.096-1.036-.096-1.263,0-.279.089-.519.266-.72.177-.2.406-.3.685-.3.272,0,.497.1.674.3.177.2.266.467.266.799,0,.091-.013.27-.04.538-.027.268-.064.593-.113.974-.049.382-.104.818-.164,1.309Z" fill="#c2cbf2"/>
        <path d="m635.863,188.242c.491-.227.959-.453,1.405-.68.446-.227.801-.393,1.065-.499.264-.106.476-.159.634-.159.264,0,.493.089.685.266.193.178.289.399.289.663,0,.151-.047.308-.142.47-.095.162-.195.266-.3.312-.974.385-2.047.665-3.218.838.212.197.472.457.782.782.31.325.472.499.487.521.113.159.272.355.476.589.204.234.346.418.425.55.079.132.119.293.119.482,0,.242-.091.453-.272.635-.181.181-.415.272-.702.272s-.61-.223-.969-.669c-.359-.446-.821-1.246-1.388-2.402-.574,1.042-.959,1.73-1.156,2.062-.196.333-.385.584-.566.753-.181.17-.389.255-.623.255-.28,0-.512-.096-.697-.289-.185-.193-.278-.398-.278-.617,0-.204.038-.359.113-.465.695-.944,1.42-1.763,2.175-2.458-.634-.098-1.201-.208-1.699-.329-.499-.121-1.027-.298-1.586-.532-.091-.045-.18-.149-.266-.312-.087-.162-.13-.312-.13-.448,0-.264.096-.485.289-.663.193-.177.414-.266.663-.266.181,0,.408.055.68.164.272.11.618.268,1.037.476.419.208.897.44,1.433.697-.098-.476-.18-1.021-.244-1.637-.064-.615-.096-1.036-.096-1.263,0-.279.089-.519.266-.72.177-.2.406-.3.685-.3.272,0,.497.1.674.3.177.2.266.467.266.799,0,.091-.013.27-.04.538-.027.268-.064.593-.113.974-.049.382-.104.818-.164,1.309Z" fill="#c2cbf2"/>
        <path d="m650.666,188.242c.491-.227.959-.453,1.405-.68.446-.227.801-.393,1.065-.499.264-.106.476-.159.634-.159.264,0,.493.089.685.266.193.178.289.399.289.663,0,.151-.047.308-.142.47-.095.162-.195.266-.3.312-.974.385-2.047.665-3.218.838.212.197.472.457.782.782.31.325.472.499.487.521.113.159.272.355.476.589.204.234.346.418.425.55.079.132.119.293.119.482,0,.242-.091.453-.272.635s-.416.272-.702.272-.61-.223-.969-.669c-.359-.446-.821-1.246-1.388-2.402-.574,1.042-.959,1.73-1.156,2.062-.196.333-.385.584-.566.753s-.389.255-.623.255c-.28,0-.512-.096-.697-.289-.185-.193-.278-.398-.278-.617,0-.204.038-.359.113-.465.695-.944,1.42-1.763,2.175-2.458-.634-.098-1.201-.208-1.699-.329-.499-.121-1.027-.298-1.586-.532-.091-.045-.179-.149-.266-.312-.087-.162-.13-.312-.13-.448,0-.264.096-.485.289-.663.193-.177.414-.266.663-.266.181,0,.408.055.68.164.272.11.617.268,1.037.476.419.208.897.44,1.433.697-.098-.476-.18-1.021-.244-1.637-.064-.615-.096-1.036-.096-1.263,0-.279.089-.519.266-.72.177-.2.406-.3.685-.3.272,0,.497.1.674.3.177.2.266.467.266.799,0,.091-.013.27-.04.538-.027.268-.064.593-.113.974-.049.382-.104.818-.164,1.309Z" fill="#c2cbf2"/>
        <path d="m665.469,188.242c.491-.227.959-.453,1.405-.68.446-.227.801-.393,1.065-.499.264-.106.476-.159.634-.159.264,0,.493.089.686.266.193.178.289.399.289.663,0,.151-.047.308-.142.47-.095.162-.195.266-.3.312-.974.385-2.047.665-3.218.838.212.197.472.457.782.782.31.325.472.499.487.521.113.159.272.355.476.589.204.234.346.418.425.55.079.132.119.293.119.482,0,.242-.091.453-.272.635s-.416.272-.703.272-.61-.223-.969-.669c-.359-.446-.821-1.246-1.388-2.402-.574,1.042-.959,1.73-1.156,2.062-.196.333-.385.584-.566.753s-.389.255-.623.255c-.28,0-.512-.096-.697-.289-.185-.193-.278-.398-.278-.617,0-.204.038-.359.113-.465.695-.944,1.42-1.763,2.175-2.458-.634-.098-1.201-.208-1.699-.329-.499-.121-1.027-.298-1.586-.532-.091-.045-.18-.149-.266-.312-.087-.162-.13-.312-.13-.448,0-.264.096-.485.289-.663.193-.177.414-.266.663-.266.181,0,.408.055.68.164.272.11.618.268,1.037.476.419.208.897.44,1.433.697-.098-.476-.18-1.021-.244-1.637-.064-.615-.096-1.036-.096-1.263,0-.279.089-.519.266-.72.177-.2.406-.3.685-.3.272,0,.497.1.674.3.177.2.266.467.266.799,0,.091-.013.27-.04.538-.027.268-.064.593-.113.974-.049.382-.104.818-.164,1.309Z" fill="#c2cbf2"/>
      </g>
    </g>
    <rect x="579.467" y="152.461" width="94.76" height="21.058" rx="4" ry="4" fill="#c2cbf2" opacity=".5"/>
    <g>
      <circle cx="626.84" cy="118.785" r="15.699" transform="translate(409.18 718.504) rotate(-80.783)" fill="#fff"/>
      <g>
        <path d="m626.902,121.536c-2.501,0-4.536-2.035-4.536-4.536s2.035-4.537,4.536-4.537,4.537,2.035,4.537,4.537-2.035,4.536-4.537,4.536Zm0-8.108c-1.969,0-3.571,1.602-3.571,3.571s1.602,3.571,3.571,3.571,3.571-1.602,3.571-3.571-1.602-3.571-3.571-3.571Z" fill="#4481bf"/>
        <path d="m626.902,120.571c-2.501,0-4.536,2.035-4.536,4.537h.965c0-1.969,1.602-3.571,3.571-3.571s3.571,1.602,3.571,3.571h.965c0-2.501-2.035-4.537-4.537-4.537Z" fill="#4481bf" opacity=".5"/>
      </g>
    </g>
    <path d="m704.954,116.09c-7.342,0-13.318-5.977-13.318-13.318,0-2.46.676-4.784,1.857-6.764h-11.535c-.64,2.14-.984,4.415-.984,6.764,0,13.22,10.76,23.98,23.98,23.98,1.722,0,3.394-.184,5.017-.541v-11.105c-1.55.639-3.247.984-5.017.984Z" fill="#c2cbf2"/>
  </g>
</svg>