<?xml version="1.0" encoding="UTF-8"?>
<svg id="Layer_1" data-name="Layer 1" xmlns="http://www.w3.org/2000/svg" xmlns:xlink="http://www.w3.org/1999/xlink" viewBox="0 0 1080 960">
  <defs>
    <linearGradient id="gradient_main" data-name="gradient main" x1="110.236" y1="327.851" x2="211.008" y2="327.851" gradientUnits="userSpaceOnUse">
      <stop offset=".006" stop-color="#2563eb"/>
      <stop offset="1" stop-color="#6d28d9"/>
    </linearGradient>
    <linearGradient id="gradient_main-2" data-name="gradient main" x1="68.845" y1="368.06" x2="169.617" y2="368.06" xlink:href="#gradient_main"/>
    <linearGradient id="gradient_main-3" data-name="gradient main" x1="678.506" y1="103.659" x2="746.653" y2="103.659" xlink:href="#gradient_main"/>
    <linearGradient id="gradient_main-4" data-name="gradient main" x1="933.871" y1="339.151" x2="984.002" y2="339.151" gradientTransform="translate(619.785 1298.087) rotate(-90)" xlink:href="#gradient_main"/>
    <linearGradient id="gradient_main-5" data-name="gradient main" x1="705.176" y1="400.24" x2="592.13" y2="293.766" xlink:href="#gradient_main"/>
    <linearGradient id="gradient_main-6" data-name="gradient main" x1="363.522" y1="185.779" x2="221.303" y2="66.498" xlink:href="#gradient_main"/>
    <linearGradient id="gradient_main-7" data-name="gradient main" x1="864.43" y1="260.326" x2="755.139" y2="168.663" xlink:href="#gradient_main"/>
    <linearGradient id="gradient_main-8" data-name="gradient main" x1="889.615" y1="283.383" x2="740.266" y2="158.122" xlink:href="#gradient_main"/>
    <linearGradient id="gradient_main-9" data-name="gradient main" x1="464.809" y1="441.801" x2="336.073" y2="324.373" xlink:href="#gradient_main"/>
    <linearGradient id="gradient_main-10" data-name="gradient main" x1="481.402" y1="481.664" x2="307.425" y2="322.969" xlink:href="#gradient_main"/>
    <linearGradient id="linear-gradient" x1="-265.569" y1="961.22" x2="-252.746" y2="925.879" gradientTransform="translate(1134.512 -414.485) rotate(11.512)" gradientUnits="userSpaceOnUse">
      <stop offset="0" stop-color="#fbb59e"/>
      <stop offset="1" stop-color="#ffebd1"/>
    </linearGradient>
    <linearGradient id="linear-gradient-2" x1="-1415.781" y1="1155.178" x2="-1403.035" y2="1199.916" gradientTransform="translate(2315.729 -578.957) rotate(5.704)" xlink:href="#linear-gradient"/>
    <linearGradient id="linear-gradient-3" x1="-1398.079" y1="1128.308" x2="-1461.932" y2="1156.318" gradientTransform="translate(2315.729 -578.957) rotate(5.704)" xlink:href="#linear-gradient"/>
    <linearGradient id="gradient_main-11" data-name="gradient main" x1="628.221" y1="291.756" x2="387.806" y2="130.89" xlink:href="#gradient_main"/>
  </defs>
  <ellipse cx="544.937" cy="866.911" rx="521.327" ry="13.629" fill="#8686f2" opacity=".2"/>
  <ellipse cx="789.586" cy="833.859" rx="66.784" ry="1.704" fill="#0075f6" opacity=".2"/>
  <g>
    <rect x="110.245" y="302.567" width="100.755" height="50.569" rx="4.597" ry="4.597" fill="url(#gradient_main)" opacity=".3"/>
    <rect x="68.854" y="342.775" width="100.755" height="50.569" rx="4.597" ry="4.597" fill="url(#gradient_main-2)" opacity=".3"/>
  </g>
  <g opacity=".3">
    <path d="m712.579,137.733c-18.788,0-34.074-15.285-34.074-34.074s15.285-34.074,34.074-34.074,34.074,15.285,34.074,34.074-15.285,34.074-34.074,34.074Zm0-53.004c-10.438,0-18.93,8.492-18.93,18.93s8.492,18.93,18.93,18.93,18.93-8.492,18.93-18.93-8.492-18.93-18.93-18.93Z" fill="url(#gradient_main-3)"/>
  </g>
  <rect x="908.844" y="314.086" width="100.184" height="50.131" rx="6.698" ry="6.698" transform="translate(1298.087 -619.785) rotate(90)" fill="url(#gradient_main-4)" opacity=".3"/>
  <g>
    <rect x="619.899" y="317.642" width="78.37" height="78.37" rx="8.729" ry="8.729" fill="url(#gradient_main-5)"/>
    <g>
      <path d="m685.735,323.389c0,.646-.524,1.17-1.17,1.17s-1.17-.524-1.17-1.17.524-1.17,1.17-1.17,1.17.524,1.17,1.17Z" fill="#fff"/>
      <circle cx="684.565" cy="327.289" r="1.17" fill="#fff"/>
      <path d="m688.856,323.389c0,.646-.524,1.17-1.17,1.17s-1.17-.524-1.17-1.17.524-1.17,1.17-1.17,1.17.524,1.17,1.17Z" fill="#fff"/>
      <circle cx="687.686" cy="327.289" r="1.17" fill="#fff"/>
      <path d="m691.976,323.389c0,.646-.524,1.17-1.17,1.17s-1.17-.524-1.17-1.17.524-1.17,1.17-1.17,1.17.524,1.17,1.17Z" fill="#fff"/>
      <path d="m691.976,327.289c0,.646-.524,1.17-1.17,1.17s-1.17-.524-1.17-1.17.524-1.17,1.17-1.17,1.17.524,1.17,1.17Z" fill="#fff"/>
    </g>
    <path d="m623.617,375.418c-1.276,0-2.517.131-3.718.389v8.34c1.15-.469,2.403-.721,3.718-.721,5.52,0,10.011,4.49,10.011,10.011,0,.887-.114,1.751-.338,2.574h8.163c.12-.841.183-1.699.183-2.574,0-9.936-8.083-18.019-18.019-18.019Z" fill="#c2cbf2"/>
    <g>
      <path d="m626.835,355.62l19.201-9.894v2.858l-16.182,8.111v.081l16.182,8.115v2.854l-19.201-9.89v-2.234Z" fill="#fdfffe"/>
      <path d="m690.921,357.895l-19.201,9.85v-2.854l16.303-8.115v-.081l-16.303-8.111v-2.858l19.201,9.85v2.318Z" fill="#fdfffe"/>
    </g>
  </g>
  <g>
    <g>
      <rect x="247.814" y="80.489" width="102.221" height="102.221" rx="11.386" ry="11.386" fill="url(#gradient_main-6)"/>
      <g>
        <path d="m264.161,175.215c0-.843.683-1.526,1.526-1.526s1.526.683,1.526,1.526-.683,1.526-1.526,1.526-1.526-.683-1.526-1.526Z" fill="#fff"/>
        <path d="m264.161,170.128c0-.843.683-1.526,1.526-1.526s1.526.683,1.526,1.526-.683,1.526-1.526,1.526-1.526-.683-1.526-1.526Z" fill="#fff"/>
        <path d="m260.091,175.215c0-.843.683-1.526,1.526-1.526s1.526.683,1.526,1.526-.683,1.526-1.526,1.526-1.526-.683-1.526-1.526Z" fill="#fff"/>
        <path d="m260.091,170.128c0-.843.683-1.526,1.526-1.526s1.526.683,1.526,1.526-.683,1.526-1.526,1.526-1.526-.683-1.526-1.526Z" fill="#fff"/>
        <path d="m256.021,175.215c0-.843.683-1.526,1.526-1.526s1.526.683,1.526,1.526-.683,1.526-1.526,1.526-1.526-.683-1.526-1.526Z" fill="#fff"/>
        <path d="m256.021,170.128c0-.843.683-1.526,1.526-1.526s1.526.683,1.526,1.526-.683,1.526-1.526,1.526-1.526-.683-1.526-1.526Z" fill="#fff"/>
      </g>
      <path d="m345.185,107.35c1.664,0,3.283-.172,4.85-.507v-10.879c-1.5.612-3.134.94-4.85.94-7.2,0-13.057-5.857-13.057-13.057,0-1.157.149-2.283.44-3.358h-10.647c-.157,1.097-.239,2.216-.239,3.358,0,12.96,10.543,23.503,23.503,23.503Z" fill="#c2cbf2"/>
    </g>
    <g>
      <path d="m284.961,136.836c0,.905-.223,1.885-.669,2.939s-1.147,2.088-2.104,3.103c-.957,1.015-2.178,1.839-3.665,2.472-1.486.633-3.219.951-5.197.951-1.5,0-2.864-.143-4.092-.427-1.228-.285-2.344-.728-3.346-1.329-1.002-.601-1.923-1.393-2.763-2.376-.75-.892-1.391-1.891-1.92-2.996-.53-1.106-.928-2.285-1.193-3.539-.265-1.254-.398-2.586-.398-3.995,0-2.289.333-4.338.999-6.148.666-1.81,1.62-3.358,2.861-4.645,1.242-1.286,2.696-2.266,4.363-2.938,1.668-.672,3.446-1.008,5.334-1.008,2.301,0,4.35.459,6.148,1.376,1.797.918,3.174,2.053,4.131,3.403.956,1.352,1.435,2.628,1.435,3.831,0,.659-.233,1.241-.698,1.745-.466.504-1.028.756-1.688.756-.737,0-1.29-.175-1.658-.524-.368-.349-.779-.95-1.231-1.803-.75-1.409-1.632-2.464-2.648-3.162-1.015-.698-2.266-1.047-3.752-1.047-2.366,0-4.251.899-5.653,2.696-1.403,1.797-2.104,4.351-2.104,7.661,0,2.21.31,4.05.93,5.517.621,1.468,1.5,2.563,2.638,3.287,1.138.725,2.47,1.086,3.995,1.086,1.655,0,3.055-.41,4.199-1.231,1.144-.821,2.007-2.027,2.589-3.617.245-.749.549-1.361.911-1.833.362-.472.944-.708,1.745-.708.685,0,1.274.239,1.765.718.491.478.737,1.073.737,1.784Z" fill="#fdfffe"/>
      <path d="m311.744,137.282c0,1.72-.443,3.265-1.328,4.636-.886,1.37-2.182,2.443-3.888,3.219-1.706.775-3.73,1.164-6.071,1.164-2.805,0-5.12-.53-6.943-1.59-1.293-.763-2.344-1.781-3.152-3.055-.808-1.274-1.212-2.511-1.212-3.714,0-.698.242-1.296.727-1.794.485-.498,1.102-.747,1.852-.747.607,0,1.121.194,1.542.582.42.388.778.963,1.076,1.726.362.905.753,1.662,1.174,2.269.42.608,1.012,1.109,1.774,1.503.763.395,1.765.592,3.006.592,1.707,0,3.094-.398,4.16-1.193,1.067-.795,1.6-1.787,1.6-2.977,0-.944-.288-1.709-.863-2.298-.575-.588-1.319-1.037-2.23-1.348-.912-.31-2.131-.64-3.656-.989-2.043-.478-3.753-1.038-5.129-1.678-1.377-.64-2.47-1.513-3.278-2.618-.808-1.106-1.212-2.479-1.212-4.122,0-1.564.427-2.954,1.28-4.169s2.088-2.149,3.704-2.803c1.616-.653,3.517-.979,5.702-.979,1.745,0,3.254.216,4.528.65,1.274.433,2.33,1.008,3.171,1.726.841.718,1.454,1.471,1.843,2.259.388.788.582,1.558.582,2.308,0,.685-.243,1.302-.728,1.852-.485.55-1.089.824-1.813.824-.659,0-1.16-.165-1.503-.494-.343-.33-.714-.87-1.115-1.62-.517-1.073-1.138-1.91-1.862-2.511-.725-.601-1.888-.902-3.491-.902-1.487,0-2.687.326-3.598.979-.912.654-1.368,1.439-1.368,2.357,0,.569.155,1.06.466,1.474.31.413.737.769,1.281,1.066.543.298,1.092.53,1.648.699.556.168,1.474.413,2.754.737,1.604.375,3.055.788,4.354,1.241,1.299.453,2.405,1.002,3.317,1.649.911.647,1.622,1.464,2.133,2.454.511.989.766,2.201.766,3.636Z" fill="#fdfffe"/>
      <path d="m338.236,137.282c0,1.72-.443,3.265-1.328,4.636-.886,1.37-2.182,2.443-3.888,3.219-1.706.775-3.73,1.164-6.071,1.164-2.805,0-5.12-.53-6.943-1.59-1.293-.763-2.344-1.781-3.152-3.055-.808-1.274-1.212-2.511-1.212-3.714,0-.698.242-1.296.727-1.794.485-.498,1.102-.747,1.852-.747.608,0,1.121.194,1.542.582.42.388.778.963,1.076,1.726.362.905.753,1.662,1.174,2.269.42.608,1.012,1.109,1.774,1.503.763.395,1.765.592,3.006.592,1.707,0,3.094-.398,4.16-1.193,1.067-.795,1.6-1.787,1.6-2.977,0-.944-.288-1.709-.863-2.298-.575-.588-1.319-1.037-2.23-1.348-.912-.31-2.131-.64-3.656-.989-2.043-.478-3.753-1.038-5.129-1.678-1.377-.64-2.47-1.513-3.278-2.618-.808-1.106-1.212-2.479-1.212-4.122,0-1.564.427-2.954,1.28-4.169s2.088-2.149,3.704-2.803c1.616-.653,3.516-.979,5.702-.979,1.745,0,3.255.216,4.528.65,1.274.433,2.33,1.008,3.171,1.726.841.718,1.455,1.471,1.843,2.259.388.788.582,1.558.582,2.308,0,.685-.243,1.302-.728,1.852s-1.09.824-1.813.824c-.659,0-1.16-.165-1.503-.494-.343-.33-.714-.87-1.115-1.62-.517-1.073-1.138-1.91-1.862-2.511-.724-.601-1.888-.902-3.491-.902-1.487,0-2.687.326-3.598.979-.912.654-1.368,1.439-1.368,2.357,0,.569.155,1.06.466,1.474.31.413.737.769,1.281,1.066.543.298,1.092.53,1.648.699.556.168,1.474.413,2.754.737,1.603.375,3.055.788,4.354,1.241,1.299.453,2.405,1.002,3.317,1.649.911.647,1.622,1.464,2.133,2.454.511.989.766,2.201.766,3.636Z" fill="#fdfffe"/>
    </g>
  </g>
  <g>
    <g>
      <path d="m851.501,268.767h-83.432c-6.924,0-12.557-5.633-12.557-12.556v-83.432c0-6.924,5.633-12.556,12.557-12.556h83.432c6.924,0,12.557,5.633,12.557,12.556v83.432c0,6.924-5.633,12.556-12.557,12.556Zm-83.432-107.346c-6.263,0-11.357,5.095-11.357,11.357v83.432c0,6.262,5.095,11.357,11.357,11.357h83.432c6.262,0,11.357-5.095,11.357-11.357v-83.432c0-6.262-5.095-11.357-11.357-11.357h-83.432Z" fill="url(#gradient_main-7)"/>
      <rect x="768.106" y="172.815" width="107.346" height="107.346" rx="11.957" ry="11.957" fill="url(#gradient_main-8)"/>
      <g>
        <path d="m785.273,272.29c0-.885.718-1.603,1.603-1.603s1.603.718,1.603,1.603-.718,1.603-1.603,1.603-1.603-.718-1.603-1.603Z" fill="#fff"/>
        <path d="m785.273,266.948c0-.885.718-1.603,1.603-1.603s1.603.718,1.603,1.603-.718,1.603-1.603,1.603-1.603-.718-1.603-1.603Z" fill="#fff"/>
        <path d="m780.999,272.29c0-.885.718-1.603,1.603-1.603s1.603.718,1.603,1.603-.718,1.603-1.603,1.603-1.603-.718-1.603-1.603Z" fill="#fff"/>
        <path d="m780.999,266.948c0-.885.718-1.603,1.603-1.603s1.603.718,1.603,1.603-.718,1.603-1.603,1.603-1.603-.718-1.603-1.603Z" fill="#fff"/>
        <path d="m776.725,272.29c0-.885.718-1.603,1.603-1.603s1.603.718,1.603,1.603-.718,1.603-1.603,1.603-1.603-.718-1.603-1.603Z" fill="#fff"/>
        <path d="m776.725,266.948c0-.885.718-1.603,1.603-1.603s1.603.718,1.603,1.603-.718,1.603-1.603,1.603-1.603-.718-1.603-1.603Z" fill="#fff"/>
      </g>
      <path d="m870.359,201.023c1.747,0,3.448-.18,5.093-.533v-11.424c-1.575.643-3.291.987-5.093.987-7.561,0-13.712-6.151-13.712-13.712,0-1.215.157-2.398.462-3.526h-11.181c-.165,1.152-.251,2.327-.251,3.526,0,13.61,11.071,24.682,24.682,24.682Z" fill="#c2cbf2"/>
    </g>
    <g>
      <path d="m782.91,217.556v6.554h10.003v-6.554c0-.936.211-1.639.632-2.107.422-.468.976-.702,1.662-.702.697,0,1.261.232,1.693.694.432.463.648,1.168.648,2.115v18.025c0,.946-.218,1.654-.655,2.122-.437.468-.999.702-1.686.702-.697,0-1.254-.237-1.67-.71-.416-.473-.624-1.178-.624-2.114v-7.694h-10.003v7.694c0,.946-.218,1.654-.655,2.122-.437.468-.999.702-1.686.702-.697,0-1.254-.237-1.67-.71-.416-.473-.624-1.178-.624-2.114v-18.025c0-.936.205-1.639.616-2.107.411-.468.97-.702,1.677-.702.697,0,1.261.232,1.693.694.432.463.648,1.168.648,2.115Z" fill="#fdfffe"/>
      <path d="m817.384,218.961h-5.056v16.621c0,.957-.213,1.667-.64,2.13-.427.463-.978.695-1.654.695-.687,0-1.246-.234-1.677-.702-.432-.468-.648-1.176-.648-2.122v-16.621h-5.056c-.791,0-1.379-.174-1.763-.523-.385-.349-.577-.809-.577-1.381,0-.593.2-1.061.601-1.405.4-.343.98-.515,1.74-.515h14.732c.801,0,1.396.177,1.787.531.39.353.586.816.586,1.389s-.198,1.032-.593,1.381c-.396.348-.989.523-1.779.523Z" fill="#fdfffe"/>
      <path d="m830.227,234.567l-3.667-14.576v15.793c0,.874-.195,1.529-.585,1.966-.39.437-.908.656-1.553.656-.624,0-1.135-.217-1.53-.648-.395-.432-.592-1.09-.592-1.974v-18.103c0-.999.26-1.672.78-2.021.52-.348,1.222-.523,2.107-.523h1.436c.863,0,1.49.078,1.88.234.39.156.679.437.867.843.187.406.4,1.067.639,1.982l3.324,12.532,3.324-12.532c.239-.915.452-1.576.639-1.982.188-.405.476-.687.866-.843.39-.156,1.017-.234,1.881-.234h1.436c.884,0,1.586.174,2.107.523.52.349.78,1.022.78,2.021v18.103c0,.874-.195,1.529-.585,1.966-.39.437-.913.656-1.569.656-.614,0-1.118-.218-1.514-.656-.395-.437-.593-1.092-.593-1.966v-15.793l-3.667,14.576c-.24.947-.435,1.642-.586,2.083-.151.442-.429.845-.835,1.209-.406.364-.968.547-1.686.547-.541,0-.999-.117-1.373-.351-.375-.234-.666-.533-.874-.897-.208-.364-.372-.767-.491-1.209-.12-.442-.242-.902-.367-1.381Z" fill="#fdfffe"/>
      <path d="m853.667,217.556v16.651h9.395c.749,0,1.323.183,1.724.547.4.364.601.822.601,1.373,0,.562-.198,1.017-.593,1.366-.395.349-.973.523-1.732.523h-11.19c-1.009,0-1.735-.223-2.177-.671-.442-.447-.663-1.17-.663-2.17v-17.619c0-.936.21-1.639.632-2.107.421-.468.975-.702,1.662-.702.697,0,1.261.232,1.693.694.432.463.648,1.168.648,2.115Z" fill="#fdfffe"/>
    </g>
  </g>
  <g>
    <g>
      <path d="m451.335,449.212h-101.787c-8.399,0-15.232-6.833-15.232-15.232v-101.787c0-8.399,6.833-15.232,15.232-15.232h101.787c8.399,0,15.232,6.833,15.232,15.232v101.787c0,8.399-6.833,15.232-15.232,15.232Zm-101.787-130.961c-7.688,0-13.942,6.254-13.942,13.942v101.787c0,7.688,6.254,13.942,13.942,13.942h101.787c7.688,0,13.942-6.254,13.942-13.942v-101.787c0-7.688-6.254-13.942-13.942-13.942h-101.787Z" fill="url(#gradient_main-9)"/>
      <rect x="322.703" y="331.154" width="130.961" height="130.961" rx="14.587" ry="14.587" fill="url(#gradient_main-10)"/>
      <g>
        <path d="m343.647,340.756c0,1.08.875,1.955,1.955,1.955s1.955-.875,1.955-1.955-.875-1.955-1.955-1.955-1.955.875-1.955,1.955Z" fill="#fff"/>
        <circle cx="345.602" cy="347.274" r="1.955" fill="#fff"/>
        <path d="m338.433,340.756c0,1.08.875,1.955,1.955,1.955s1.955-.875,1.955-1.955-.875-1.955-1.955-1.955-1.955.875-1.955,1.955Z" fill="#fff"/>
        <circle cx="340.388" cy="347.274" r="1.955" fill="#fff"/>
        <path d="m333.218,340.756c0,1.08.875,1.955,1.955,1.955s1.955-.875,1.955-1.955-.875-1.955-1.955-1.955-1.955.875-1.955,1.955Z" fill="#fff"/>
        <path d="m333.218,347.274c0,1.08.875,1.955,1.955,1.955s1.955-.875,1.955-1.955-.875-1.955-1.955-1.955-1.955.875-1.955,1.955Z" fill="#fff"/>
      </g>
      <path d="m447.451,427.702c2.132,0,4.206.22,6.214.65v13.937c-1.921-.784-4.015-1.204-6.214-1.204-9.225,0-16.729,7.504-16.729,16.729,0,1.482.191,2.925.564,4.302h-13.641c-.201-1.405-.306-2.839-.306-4.302,0-16.604,13.507-30.111,30.111-30.111Z" fill="#c2cbf2"/>
    </g>
    <text transform="translate(362.781 414.647)" fill="#fff" font-family="Nunito-ExtraBold, Nunito" font-size="53.155" font-weight="700"><tspan x="0" y="0">JS</tspan></text>
  </g>
  <g>
    <g>
      <polygon points="879.84 709.432 941.985 447.343 798.782 447.343 729.451 709.432 879.84 709.432" fill="#d6e6f2"/>
      <path d="m671.78,682.413h116.194v27.019h-116.194c-5.96,0-10.798-4.838-10.798-10.798v-5.423c0-5.96,4.838-10.798,10.798-10.798Z" fill="#d6e6f2"/>
      <path d="m941.985,447.343l-55.741,235.07-6.403,27.019s-3.918-11.348-6.512-27.019c-3.864-23.345-4.783-56.255,14.617-75.655,0,0-5.404-75.655,16.212-94.568,0,0-8.106-64.847,37.827-64.847Z" fill="#b9d7ea"/>
      <polygon points="886.244 682.413 879.84 709.432 787.974 709.432 787.974 682.413 886.244 682.413" fill="#b9d7ea"/>
      <rect x="769.06" y="709.432" width="24.318" height="105.376" fill="#d0dcdb"/>
      <rect x="712.319" y="804.001" width="135.098" height="10.808" fill="#8c9695"/>
      <path d="m733.935,824.265c0,5.223-4.234,9.457-9.457,9.457s-9.457-4.234-9.457-9.457,4.234-9.457,9.457-9.457,9.457,4.234,9.457,9.457Z" fill="#232625"/>
      <path d="m806.888,824.265c0,5.223-4.234,9.457-9.457,9.457s-9.457-4.234-9.457-9.457,4.234-9.457,9.457-9.457,9.457,4.234,9.457,9.457Z" fill="#232625"/>
      <path d="m844.715,824.265c0,5.223-4.234,9.457-9.457,9.457s-9.457-4.234-9.457-9.457,4.234-9.457,9.457-9.457,9.457,4.234,9.457,9.457Z" fill="#232625"/>
      <path d="m769.06,709.432v28.457s11.147,2.621,13.51,12.073c2.702,10.808,10.808,9.658,10.808,9.658v-50.187h-24.318Z" fill="#969e9f"/>
    </g>
    <g>
      <path d="m739.183,621.812l10.559-148.658s31.679-22.87,49.278-19.059c17.599,3.812,31.82,10.112,42.238,15.247,11.551,5.693,10.56,152.47,10.56,152.47h-112.635Z" fill="#111" opacity=".99"/>
      <path d="m802.395,519.809c-.235-.078-.47-.152-.705-.222.039-.161.074-.322.109-.483.535-2.594.183-4.678-1.005-5.366-1.145-.657-3.011.026-4.9,1.671-.187.161-.37.331-.544.5-.117-.113-.239-.226-.361-.335-1.98-1.758-3.964-2.498-5.153-1.806-1.14.661-1.48,2.624-1.001,5.079.048.244.1.483.161.727-.279.078-.553.165-.809.257-2.324.805-3.991,2.076-3.991,3.39,0,1.358,1.776,2.72,4.191,3.547.196.065.392.131.592.187-.065.261-.122.518-.174.783-.457,2.415-.1,4.33,1.04,4.987,1.175.679,3.151-.017,5.074-1.702.152-.135.305-.274.457-.422.191.187.392.366.592.54,1.863,1.601,3.703,2.25,4.839,1.593,1.175-.679,1.558-2.737,1.062-5.244-.039-.191-.083-.387-.131-.587.139-.039.274-.083.409-.126,2.511-.831,4.33-2.176,4.33-3.555,0-1.319-1.715-2.598-4.082-3.412h0Zm-5.888-3.695c1.619-1.41,3.129-1.963,3.817-1.567.735.422,1.018,2.128.557,4.369-.03.148-.061.292-.1.435-.966-.218-1.945-.374-2.929-.461-.566-.809-1.184-1.584-1.854-2.311.17-.161.335-.313.509-.466Zm-5.035,9.365c.222.379.448.757.688,1.127-.679-.074-1.353-.183-2.019-.326.191-.627.431-1.275.709-1.937.2.383.405.762.622,1.136h0Zm-1.319-5.235c.627-.139,1.292-.252,1.984-.339-.231.361-.457.731-.67,1.105-.213.37-.422.749-.618,1.131-.274-.648-.505-1.284-.696-1.897h0Zm1.192,2.998c.287-.601.601-1.188.931-1.767s.688-1.14,1.062-1.693c.653-.048,1.319-.074,1.997-.074s1.349.026,1.997.074c.37.548.722,1.11,1.057,1.684s.648,1.162.944,1.758c-.292.601-.605,1.192-.94,1.776-.331.579-.683,1.14-1.053,1.697-.648.048-1.323.07-2.006.07s-1.345-.022-1.984-.061c-.379-.553-.735-1.118-1.071-1.697s-.644-1.166-.936-1.767h0Zm7.859,2.228c.222-.383.431-.77.635-1.162.279.631.522,1.271.735,1.928-.675.152-1.358.27-2.045.348.235-.366.457-.74.675-1.114h0Zm.627-3.329c-.205-.383-.413-.766-.631-1.14-.213-.37-.435-.735-.666-1.097.701.087,1.371.205,1.997.348-.2.644-.435,1.271-.701,1.889Zm-4.487-4.896c.457.496.888,1.018,1.288,1.558-.862-.039-1.728-.039-2.589,0,.426-.561.866-1.084,1.301-1.558Zm-5.048-2.668c.731-.426,2.354.183,4.065,1.697.109.096.218.2.331.305-.675.727-1.297,1.501-1.867,2.311-.984.087-1.958.239-2.924.453-.057-.222-.104-.448-.152-.675-.409-2.106-.139-3.695.548-4.091h0Zm-1.066,11.471c-.183-.052-.361-.109-.54-.17-.927-.292-1.98-.753-2.742-1.358-.44-.305-.735-.775-.818-1.301,0-.796,1.375-1.815,3.36-2.507.248-.087.5-.165.753-.239.296.944.653,1.871,1.066,2.768-.418.91-.779,1.85-1.079,2.807Zm5.074,4.265c-.718.657-1.549,1.179-2.454,1.536-.483.231-1.04.252-1.536.057-.692-.4-.979-1.937-.587-4.004.048-.244.1-.487.161-.727.975.209,1.958.352,2.955.426.574.814,1.205,1.593,1.88,2.324-.139.135-.279.265-.418.387h0Zm1.066-1.057c-.444-.479-.888-1.01-1.319-1.58.418.017.849.026,1.284.026.448,0,.888-.009,1.323-.03-.4.553-.831,1.079-1.288,1.584Zm5.688,1.306c-.039.531-.3,1.027-.718,1.362-.692.4-2.167-.122-3.76-1.488-.183-.157-.366-.326-.553-.5.666-.735,1.279-1.514,1.836-2.333.997-.083,1.989-.235,2.968-.457.044.178.083.357.117.531.213.94.248,1.919.109,2.885h0Zm.792-4.678c-.122.039-.244.078-.37.113-.305-.949-.679-1.876-1.11-2.776.418-.888.77-1.802,1.066-2.737.226.065.444.135.653.205,2.028.696,3.451,1.732,3.451,2.524,0,.853-1.519,1.954-3.69,2.672Zm-6.515-.653c1.101,0,1.993-.892,1.993-1.993s-.892-1.993-1.993-1.993-1.993.892-1.993,1.993.892,1.993,1.993,1.993h0Z" fill="#149eca"/>
      <path d="m687.86,478.577s-13.519-43.682,1.139-36.001c7.349,3.851,11.051,18.582,11.051,18.582,0,0,2.675-10.73,5.439-5.537,2.764,5.192-6.921,22.18-6.921,22.18l-10.708.777Z" fill="url(#linear-gradient)"/>
      <polygon points="777.901 457.908 746.223 469.343 729.056 674.768 776.624 663.788 777.901 457.908" fill="#4f46e5" opacity=".99"/>
      <path d="m746.223,537.954l-24.944,50.648c-2.945,5.98-8.158,10.491-14.337,11.566-7.027,1.222-15.13-1.703-17.037-20.285-3.52-34.306-3.52-102.917-3.52-102.917h14.079l10.56,53.364s21.119-60.988,35.198-60.988v68.611Z" fill="#4f46e5" opacity=".99"/>
      <g>
        <path d="m771.29,397.254s-17.993-5.453-14.514-23.103c3.479-17.65,20.693-8.777,23.806-7.438,3.113,1.338,16.711-.695,19.549-1.389,2.838-.694,12.636-1.637,14.834,9.617,2.198,11.254,2.2,36.292-9.246,40.06-11.445,3.768-34.429-17.747-34.429-17.747Z" fill="#11163d"/>
        <path d="m806.2,417.306l4.205,40.967c.266,2.593-.937,5.107-3.055,6.348-6.565,3.849-18.079,7.075-25.56-3.283-1.211-1.677-1.006-4.118-.81-6.236l3.291-35.663,21.93-2.133Z" fill="url(#linear-gradient-2)"/>
        <path d="m766.551,390.982s-9.428,52.058,17.537,50.47c26.965-1.589,22.157-24.642,22.157-24.642,0,0,7.6-2.182,5.081-9.965-2.518-7.784-10.69,3.099-10.69,3.099,0,0,1.006-20.922-9.203-20.525-10.209.397-15.932,7.289-24.882,1.563Z" fill="url(#linear-gradient-3)"/>
        <path d="m774.786,417.029c-.958-.104-1.708-.493-2.241-1.164-1.705-2.151-.396-6.367-.34-6.545.083-.26.343-.396.585-.309.24.09.368.372.286.633-.012.038-1.195,3.856.168,5.574.62.781,1.73,1.022,3.298.715.25-.046.489.131.535.402.045.271-.121.53-.371.579-.712.139-1.352.178-1.92.117Z" fill="#bc8877"/>
        <path d="m780.603,428.189c-.01.002-.02.004-.031.006-2.042.372-3.59-.955-3.655-1.012-.198-.172-.229-.486-.07-.701.16-.214.448-.248.646-.076.02.017,1.311,1.104,2.937.803.004,0,.008-.001.013-.002,1.275-.242,2.441-1.262,3.465-3.034.135-.233.419-.304.634-.158.215.146.281.454.146.687-1.168,2.021-2.543,3.194-4.086,3.487Z" fill="#bc8877"/>
        <path d="m770.215,405.714c-.076.821-.547,1.443-1.053,1.388-.506-.055-.854-.765-.778-1.586.076-.822.547-1.443,1.053-1.388.506.055.854.765.778,1.586Z" fill="#bc8877"/>
        <path d="m783.995,406.704c-.076.821-.547,1.443-1.053,1.388-.506-.055-.854-.765-.778-1.587.076-.821.547-1.443,1.053-1.388.506.055.854.765.778,1.587Z" fill="#bc8877"/>
      </g>
      <polygon points="727.055 801.613 733.716 823.186 712.143 829.847 704.705 806.384 727.055 801.613" fill="#ffd3c4"/>
      <path d="m734.051,818.627l10.442,20.018-61.608,27.545s-10.063-5.575,16.631-26.871c3.796-3.028,6.542-7.174,7.759-11.874l.645-2.492,26.131-6.325Z" fill="#5b90ef"/>
      <path d="m733.433,811.963l-29.63,5.926-61.834-163.777c-5.49-14.541,5.061-30.138,20.6-30.454l121.585-2.47-5.288,62.378-77.039-1.975,31.606,130.373Z" fill="#262141"/>
      <polygon points="683.427 823.6 679.352 845.806 657.146 841.731 661.406 817.489 683.427 823.6" fill="#ffd3c4"/>
      <path d="m681.759,841.92l-.004,22.577-67.361-4.083s-6.342-9.598,27.176-16.128c4.766-.929,9.119-3.333,12.373-6.937l1.725-1.91,26.092,6.482Z" fill="#5b90ef"/>
      <path d="m849.979,620.355s0,53.334-39.507,63.211h-75.063l-51.359,146.175-27.655-3.951,35.096-190.257c1.415-7.673,8.059-13.275,15.861-13.374l142.627-1.805Z" fill="#332c57"/>
      <polygon points="686.599 662.052 666.671 719.539 672.934 736.129 686.599 662.052" fill="#1d1931"/>
      <polygon points="813.1 457.908 844.778 469.343 869.417 701.859 820.139 701.859 813.1 457.908" fill="#4f46e5" opacity=".99"/>
      <path d="m840.39,468.805s10.297-2.533,21.061,14.363c7.905,12.409,27.253,51.521,36.971,71.42,3.633,7.439,3.668,16.286.099,23.762-11.157,23.364-35.057,73.326-37.085,76.812-2.653,4.561-13.416-12.335-13.416-12.335l22.627-64.199-25.426-52.378-4.831-57.444Z" fill="#4f46e5" opacity=".99"/>
      <rect x="851.85" y="634.805" width="4.046" height="30.349" transform="translate(-209.502 794.217) rotate(-45.003)" fill="#3030a5" opacity=".99"/>
      <polygon points="857.882 593.004 847.567 643.273 859.661 609.797 857.882 593.004" fill="#3030a5"/>
    </g>
    <g>
      <rect x="407.258" y="622.977" width="102.997" height="243.188" fill="#e0edfa"/>
      <rect x="510.255" y="622.977" width="91.553" height="243.188" fill="#b9c3ce"/>
      <rect x="392.953" y="605.811" width="414.849" height="17.166" fill="#a8b2bb"/>
      <rect x="807.802" y="605.811" width="134.468" height="17.166" fill="#70777d"/>
      <polygon points="854.98 622.977 849.745 645.866 803.167 848.999 802.509 851.86 799.219 866.165 790.636 866.165 793.468 851.86 794.04 848.999 834.353 645.866 838.901 622.977 854.98 622.977" fill="#b9c3ce"/>
      <polygon points="966.561 866.165 957.978 866.165 954.688 851.86 954.029 848.999 907.452 645.866 902.216 622.977 918.295 622.977 922.844 645.866 963.156 848.999 963.728 851.86 966.561 866.165" fill="#b9c3ce"/>
      <polygon points="838.901 622.977 854.98 622.977 849.745 645.866 834.353 645.866 838.901 622.977" fill="#788997"/>
      <polygon points="922.844 645.866 907.452 645.866 902.216 622.977 918.295 622.977 922.844 645.866" fill="#788997"/>
      <path d="m520.753,465.621h164.025v120.163h-164.025c-4.215,0-7.637-3.422-7.637-7.637v-104.889c0-4.215,3.422-7.637,7.637-7.637Z" fill="#d6e6f2"/>
      <path d="m684.778,465.621h4.162c2.44,0,4.421,1.981,4.421,4.421v111.32c0,2.44-1.981,4.422-4.422,4.422h-4.162v-120.163h0Z" fill="#b9d7ea"/>
      <polygon points="587.503 548.591 573.137 605.811 601.808 605.811 613.252 548.591 587.503 548.591" fill="#769fcd"/>
      <polygon points="613.252 605.811 601.808 605.811 613.252 548.591 613.252 605.811" fill="#59779a"/>
      <path d="m618.974,512.828c0,10.271-8.326,18.597-18.597,18.597s-18.597-8.326-18.597-18.597,8.326-18.596,18.597-18.596,18.597,8.326,18.597,18.596Z" fill="#fff"/>
      <polygon points="510.255 622.977 601.808 703.086 601.808 622.977 510.255 622.977" fill="#8b929b"/>
      <polygon points="794.04 848.999 803.167 848.999 802.509 851.86 793.468 851.86 794.04 848.999" fill="#e3e4e6"/>
      <polygon points="963.728 851.86 954.688 851.86 954.029 848.999 963.156 848.999 963.728 851.86" fill="#e3e4e6"/>
      <rect x="724.832" y="574.773" width="22.541" height="31.558" fill="#b9d7ea"/>
      <path d="m747.07,602.95c-6.669,0-12.094-5.425-12.094-12.094s5.425-12.094,12.094-12.094,12.094,5.425,12.094,12.094-5.425,12.094-12.094,12.094Zm0-22.173c-5.557,0-10.079,4.522-10.079,10.079s4.522,10.079,10.079,10.079,10.079-4.522,10.079-10.079-4.522-10.079-10.079-10.079Z" fill="#b9d7ea"/>
    </g>
    <g>
      <g>
        <path d="m405.642,604.673h89.597c2.795,0,5.061-2.012,5.061-4.494v-7.319c0-2.482-2.266-4.494-5.061-4.494h-89.597" fill="#fff"/>
        <path d="m500.299,593.01v4.25c0-2.033-2.265-3.681-5.061-3.681h-89.597v-4.25h89.597c2.795,0,5.061,1.648,5.061,3.681Z" fill="#ad9f6e" opacity=".3"/>
        <path d="m494.654,605.785h-88.726c-.481,0-.871-.346-.871-.773v-.676c0-.427.39-.774.871-.774h88.726c2.103,0,3.809-1.514,3.809-3.382v-7.319c0-1.868-1.705-3.382-3.809-3.382h-88.726c-.481,0-.871-.346-.871-.773v-.677c0-.427.39-.774.871-.774h88.726c3.486,0,6.312,2.51,6.312,5.606v7.319c0,3.096-2.826,5.606-6.313,5.606Z" fill="#b9d7ea"/>
        <polygon points="490.116 602.227 486.693 599.558 483.187 602.227 483.187 595.407 490.116 595.407 490.116 602.227" fill="#769fcd"/>
      </g>
      <g>
        <path d="m394.785,585.993h89.597c2.795,0,5.061-2.275,5.061-5.081v-8.275c0-2.806-2.266-5.081-5.061-5.081h-89.597" fill="#fff"/>
        <path d="m489.443,572.807v4.805c0-2.299-2.265-4.162-5.061-4.162h-89.597v-4.805h89.597c2.796,0,5.061,1.863,5.061,4.162Z" fill="#ad9f6e" opacity=".3"/>
        <path d="m483.797,587.25h-88.726c-.481,0-.871-.392-.871-.875v-.765c0-.483.39-.875.871-.875h88.726c2.103,0,3.809-1.712,3.809-3.824v-8.275c0-2.112-1.705-3.824-3.809-3.824h-88.726c-.481,0-.871-.392-.871-.875v-.765c0-.483.39-.875.871-.875h88.726c3.486,0,6.313,2.838,6.313,6.338v8.275c0,3.5-2.826,6.338-6.313,6.338Z" fill="#c1c1f4"/>
        <polygon points="479.259 583.227 475.837 580.21 472.331 583.227 472.331 575.517 479.259 575.517 479.259 583.227" fill="#4f46e5"/>
      </g>
      <g>
        <path d="m413.673,565.214h89.597c2.795,0,5.061-1.967,5.061-4.393v-7.154c0-2.426-2.266-4.393-5.061-4.393h-89.597" fill="#fff"/>
        <path d="m508.33,553.814v4.154c0-1.988-2.265-3.598-5.061-3.598h-89.597v-4.154h89.597c2.795,0,5.061,1.611,5.061,3.598Z" fill="#ad9f6e" opacity=".3"/>
        <path d="m502.685,566.301h-88.726c-.481,0-.871-.339-.871-.756v-.661c0-.418.39-.756.871-.756h88.726c2.103,0,3.809-1.48,3.809-3.306v-7.154c0-1.826-1.705-3.306-3.809-3.306h-88.726c-.481,0-.871-.339-.871-.756v-.662c0-.418.39-.756.871-.756h88.726c3.486,0,6.313,2.453,6.313,5.48v7.154c0,3.026-2.826,5.48-6.313,5.48Z" fill="#769fcd"/>
      </g>
      <g>
        <path d="m402.387,547.075h89.597c2.795,0,5.061-2.012,5.061-4.494v-7.319c0-2.482-2.266-4.494-5.061-4.494h-89.597" fill="#fff"/>
        <path d="m497.045,535.413v4.25c0-2.033-2.266-3.681-5.061-3.681h-89.597v-4.25h89.597c2.795,0,5.061,1.648,5.061,3.681Z" fill="#ad9f6e" opacity=".3"/>
        <path d="m491.399,548.187h-88.726c-.481,0-.871-.346-.871-.774v-.676c0-.427.39-.774.871-.774h88.726c2.103,0,3.809-1.514,3.809-3.382v-7.319c0-1.868-1.705-3.382-3.809-3.382h-88.726c-.481,0-.871-.346-.871-.774v-.676c0-.427.39-.774.871-.774h88.726c3.486,0,6.313,2.51,6.313,5.606v7.319c0,3.096-2.826,5.606-6.313,5.606Z" fill="#c1c1f4"/>
        <polygon points="486.861 544.629 483.439 541.961 479.933 544.629 479.933 537.81 486.861 537.81 486.861 544.629" fill="#4f46e5"/>
      </g>
    </g>
  </g>
  <g>
    <rect x="407.279" y="142.668" width="210.909" height="143.626" rx="9.524" ry="9.524" fill="url(#gradient_main-11)"/>
    <g>
      <rect x="454.91" y="245.497" width="118.557" height="26.346" rx="4" ry="4" fill="#c2cbf2" opacity=".5"/>
      <g>
        <path d="m469.907,258.064c.614-.283,1.2-.567,1.757-.851.557-.283,1.002-.491,1.332-.624.331-.132.595-.198.794-.198.331,0,.617.111.858.333.241.222.361.499.361.829,0,.189-.059.385-.177.588-.118.203-.243.333-.376.39-1.219.482-2.561.832-4.026,1.049.265.246.59.572.978.978.387.406.59.624.609.652.142.198.34.444.595.737.255.293.432.522.532.688.099.165.149.366.149.602,0,.303-.113.567-.34.794s-.52.34-.879.34-.763-.279-1.212-.836c-.449-.557-1.027-1.559-1.736-3.005-.718,1.304-1.2,2.164-1.446,2.58-.246.416-.482.73-.708.943-.227.213-.487.319-.78.319-.35,0-.64-.12-.872-.362-.232-.241-.347-.498-.347-.773,0-.255.047-.449.142-.581.869-1.181,1.777-2.206,2.721-3.076-.794-.123-1.502-.26-2.126-.411-.624-.151-1.285-.373-1.984-.666-.113-.057-.225-.187-.333-.39-.109-.203-.163-.39-.163-.56,0-.331.12-.607.361-.829.241-.222.517-.333.829-.333.227,0,.51.069.851.206.34.137.773.336,1.297.595.525.26,1.122.551,1.793.872-.123-.595-.225-1.278-.305-2.048-.08-.77-.121-1.297-.121-1.58,0-.349.111-.65.333-.9.222-.25.508-.376.858-.376.34,0,.621.125.843.376.222.251.333.584.333.999,0,.113-.017.338-.05.673-.033.335-.08.742-.142,1.219-.062.477-.13,1.023-.205,1.637Z" fill="#c2cbf2"/>
        <path d="m488.428,258.064c.614-.283,1.2-.567,1.757-.851.558-.283,1.002-.491,1.333-.624.331-.132.595-.198.794-.198.331,0,.617.111.858.333.241.222.361.499.361.829,0,.189-.059.385-.177.588-.118.203-.243.333-.376.39-1.219.482-2.561.832-4.026,1.049.265.246.59.572.978.978.387.406.59.624.61.652.142.198.34.444.595.737.255.293.432.522.532.688.099.165.149.366.149.602,0,.303-.113.567-.34.794s-.52.34-.879.34-.763-.279-1.212-.836c-.449-.557-1.027-1.559-1.736-3.005-.718,1.304-1.2,2.164-1.446,2.58-.246.416-.482.73-.709.943s-.487.319-.78.319c-.35,0-.64-.12-.872-.362-.232-.241-.347-.498-.347-.773,0-.255.047-.449.142-.581.869-1.181,1.777-2.206,2.721-3.076-.794-.123-1.502-.26-2.126-.411-.624-.151-1.285-.373-1.984-.666-.113-.057-.225-.187-.333-.39-.109-.203-.163-.39-.163-.56,0-.331.12-.607.361-.829.241-.222.517-.333.829-.333.227,0,.51.069.851.206.34.137.773.336,1.297.595.525.26,1.122.551,1.793.872-.123-.595-.225-1.278-.305-2.048-.08-.77-.121-1.297-.121-1.58,0-.349.111-.65.333-.9.222-.25.508-.376.858-.376.34,0,.621.125.843.376.222.251.333.584.333.999,0,.113-.017.338-.05.673-.033.335-.08.742-.142,1.219-.062.477-.13,1.023-.206,1.637Z" fill="#c2cbf2"/>
        <path d="m506.948,258.064c.614-.283,1.2-.567,1.758-.851.557-.283,1.001-.491,1.332-.624.331-.132.595-.198.794-.198.331,0,.617.111.858.333.241.222.362.499.362.829,0,.189-.059.385-.177.588-.118.203-.243.333-.376.39-1.219.482-2.561.832-4.026,1.049.265.246.59.572.978.978.387.406.59.624.61.652.142.198.34.444.595.737.255.293.432.522.532.688.099.165.149.366.149.602,0,.303-.113.567-.34.794-.227.227-.52.34-.879.34s-.763-.279-1.212-.836c-.449-.557-1.027-1.559-1.736-3.005-.718,1.304-1.2,2.164-1.446,2.58-.246.416-.482.73-.709.943-.227.213-.487.319-.78.319-.35,0-.64-.12-.872-.362-.232-.241-.347-.498-.347-.773,0-.255.047-.449.142-.581.869-1.181,1.777-2.206,2.722-3.076-.794-.123-1.502-.26-2.126-.411-.624-.151-1.285-.373-1.984-.666-.113-.057-.225-.187-.333-.39-.109-.203-.163-.39-.163-.56,0-.331.12-.607.362-.829.241-.222.517-.333.829-.333.227,0,.51.069.851.206.34.137.773.336,1.297.595.524.26,1.122.551,1.793.872-.123-.595-.225-1.278-.305-2.048-.08-.77-.121-1.297-.121-1.58,0-.349.111-.65.333-.9.222-.25.508-.376.858-.376.34,0,.621.125.843.376.222.251.333.584.333.999,0,.113-.017.338-.05.673-.033.335-.08.742-.142,1.219-.062.477-.13,1.023-.206,1.637Z" fill="#c2cbf2"/>
        <path d="m525.468,258.064c.614-.283,1.2-.567,1.758-.851.557-.283,1.002-.491,1.332-.624.331-.132.595-.198.794-.198.331,0,.617.111.858.333.241.222.361.499.361.829,0,.189-.059.385-.177.588-.118.203-.243.333-.376.39-1.219.482-2.561.832-4.026,1.049.265.246.59.572.978.978.387.406.59.624.61.652.142.198.34.444.595.737.255.293.432.522.532.688.099.165.149.366.149.602,0,.303-.113.567-.34.794-.227.227-.52.34-.879.34s-.763-.279-1.212-.836c-.449-.557-1.027-1.559-1.736-3.005-.718,1.304-1.2,2.164-1.446,2.58-.246.416-.482.73-.709.943-.227.213-.487.319-.78.319-.35,0-.64-.12-.872-.362-.232-.241-.347-.498-.347-.773,0-.255.047-.449.142-.581.869-1.181,1.777-2.206,2.721-3.076-.794-.123-1.502-.26-2.126-.411-.624-.151-1.285-.373-1.984-.666-.113-.057-.225-.187-.333-.39-.109-.203-.163-.39-.163-.56,0-.331.121-.607.361-.829.241-.222.518-.333.829-.333.227,0,.51.069.851.206.34.137.773.336,1.297.595.525.26,1.122.551,1.793.872-.123-.595-.225-1.278-.305-2.048-.08-.77-.12-1.297-.12-1.58,0-.349.111-.65.333-.9.222-.25.508-.376.858-.376.34,0,.621.125.844.376.222.251.333.584.333.999,0,.113-.017.338-.05.673-.033.335-.08.742-.142,1.219-.062.477-.13,1.023-.206,1.637Z" fill="#c2cbf2"/>
        <path d="m543.989,258.064c.614-.283,1.2-.567,1.757-.851.558-.283,1.002-.491,1.333-.624.331-.132.595-.198.794-.198.331,0,.617.111.858.333.241.222.362.499.362.829,0,.189-.059.385-.177.588-.118.203-.243.333-.376.39-1.219.482-2.561.832-4.026,1.049.265.246.59.572.978.978.387.406.59.624.61.652.142.198.34.444.595.737.255.293.432.522.532.688.099.165.149.366.149.602,0,.303-.113.567-.34.794s-.52.34-.879.34-.763-.279-1.212-.836c-.449-.557-1.027-1.559-1.736-3.005-.718,1.304-1.2,2.164-1.446,2.58-.246.416-.482.73-.708.943s-.487.319-.78.319c-.35,0-.64-.12-.872-.362-.232-.241-.347-.498-.347-.773,0-.255.047-.449.142-.581.869-1.181,1.777-2.206,2.721-3.076-.794-.123-1.502-.26-2.126-.411-.624-.151-1.285-.373-1.984-.666-.113-.057-.225-.187-.333-.39-.109-.203-.163-.39-.163-.56,0-.331.12-.607.361-.829.241-.222.517-.333.829-.333.227,0,.51.069.851.206.34.137.773.336,1.297.595.524.26,1.122.551,1.793.872-.123-.595-.225-1.278-.305-2.048-.08-.77-.121-1.297-.121-1.58,0-.349.111-.65.333-.9.222-.25.508-.376.858-.376.34,0,.621.125.843.376.222.251.333.584.333.999,0,.113-.017.338-.05.673-.033.335-.08.742-.142,1.219-.062.477-.13,1.023-.206,1.637Z" fill="#c2cbf2"/>
        <path d="m562.509,258.064c.614-.283,1.2-.567,1.757-.851.558-.283,1.002-.491,1.333-.624.331-.132.595-.198.793-.198.331,0,.617.111.858.333.241.222.361.499.361.829,0,.189-.059.385-.177.588-.118.203-.243.333-.376.39-1.219.482-2.561.832-4.026,1.049.265.246.59.572.978.978.387.406.59.624.61.652.142.198.34.444.595.737.255.293.432.522.532.688.099.165.149.366.149.602,0,.303-.113.567-.34.794s-.52.34-.879.34-.763-.279-1.212-.836c-.449-.557-1.028-1.559-1.736-3.005-.718,1.304-1.2,2.164-1.446,2.58-.246.416-.482.73-.708.943s-.487.319-.78.319c-.35,0-.64-.12-.872-.362-.232-.241-.347-.498-.347-.773,0-.255.047-.449.142-.581.869-1.181,1.777-2.206,2.721-3.076-.794-.123-1.502-.26-2.126-.411-.624-.151-1.285-.373-1.984-.666-.113-.057-.225-.187-.333-.39-.109-.203-.163-.39-.163-.56,0-.331.12-.607.361-.829.241-.222.517-.333.829-.333.227,0,.51.069.85.206.34.137.773.336,1.297.595.525.26,1.122.551,1.793.872-.123-.595-.225-1.278-.305-2.048-.08-.77-.12-1.297-.12-1.58,0-.349.111-.65.333-.9.222-.25.508-.376.858-.376.34,0,.621.125.844.376.222.251.333.584.333.999,0,.113-.017.338-.05.673-.033.335-.08.742-.142,1.219-.062.477-.13,1.023-.205,1.637Z" fill="#c2cbf2"/>
      </g>
    </g>
    <rect x="454.91" y="213.297" width="118.557" height="26.346" rx="4" ry="4" fill="#c2cbf2" opacity=".5"/>
    <g>
      <circle cx="514.18" cy="171.165" r="19.641" transform="translate(262.863 651.287) rotate(-80.783)" fill="#fff"/>
      <g>
        <path d="m514.256,174.606c-3.13,0-5.676-2.546-5.676-5.676s2.546-5.676,5.676-5.676,5.676,2.546,5.676,5.676-2.546,5.676-5.676,5.676Zm0-10.144c-2.464,0-4.468,2.004-4.468,4.468s2.004,4.468,4.468,4.468,4.468-2.004,4.468-4.468-2.004-4.468-4.468-4.468Z" fill="#4481bf"/>
        <path d="m514.256,173.399c-3.13,0-5.676,2.546-5.676,5.676h1.208c0-2.464,2.004-4.468,4.468-4.468s4.468,2.004,4.468,4.468h1.208c0-3.13-2.546-5.676-5.676-5.676Z" fill="#4481bf" opacity=".5"/>
      </g>
    </g>
    <path d="m611.91,167.793c-9.185,0-16.663-7.478-16.663-16.663,0-3.077.846-5.985,2.323-8.462h-14.432c-.8,2.677-1.231,5.523-1.231,8.462,0,16.54,13.463,30.002,30.002,30.002,2.154,0,4.246-.231,6.277-.677v-13.893c-1.939.8-4.062,1.231-6.277,1.231Z" fill="#c2cbf2"/>
  </g>
</svg>