<?xml version="1.0" encoding="UTF-8"?>
<svg id="logo" xmlns="http://www.w3.org/2000/svg" xmlns:xlink="http://www.w3.org/1999/xlink" viewBox="0 0 1080 1080">
  <defs>
    <linearGradient id="linear-gradient" x1="-18.387" y1="539.763" x2="1083.363" y2="539.763" gradientUnits="userSpaceOnUse">
      <stop offset="0" stop-color="#7e22ce"/>
      <stop offset="1" stop-color="#2563eb"/>
    </linearGradient>
    <linearGradient id="linear-gradient-2" y1="539.75" y2="539.75" xlink:href="#linear-gradient"/>
    <linearGradient id="linear-gradient-3" y1="539.94" y2="539.94" xlink:href="#linear-gradient"/>
    <linearGradient id="linear-gradient-4" y1="540" y2="540" xlink:href="#linear-gradient"/>
    <linearGradient id="linear-gradient-5" y1="540" y2="540" xlink:href="#linear-gradient"/>
  </defs>
  <g id="cpy">
    <g>
      <path d="m594.46,382.291c-8.41,2.09-22.425,6.726-36.64,17.618-16.47,12.619-25.018,27.362-28.974,35.456v261.872h65.614v-314.945Z" fill="url(#linear-gradient)"/>
      <path d="m850.861,414.182c-38.367-33.205-82.624-32.318-92.341-31.891h-137.815v65.614h137.815c5.656.084,30.149,1.077,50.401,20.521,16.832,16.159,20.73,35.459,21.747,41.903v57.286c-.792,6.152-4.211,26.66-21.878,43.627-20.28,19.477-44.797,20.326-50.27,20.381h-137.815v65.614h137.815c10.551.393,52.793.746,90.174-30.38,44.998-37.469,47.36-90.918,47.588-99.242v-57.286c-.256-8.367-2.656-59.134-45.421-96.146Z" fill="url(#linear-gradient-2)"/>
      <path d="m502.179,513.754c-.026,8.07-.053,16.141-.079,24.211v159.507h-65.614v-183.718c-.643-6.207-3.556-26.862-20.878-44.197-21.009-21.023-47.491-21.416-52.609-21.403v-.013h-114.168v249.332h-65.614v-314.945h179.781c8.162-.394,61.559-2.06,102.265,40.05,35.497,36.731,36.849,81.413,36.914,91.177Z" fill="url(#linear-gradient-3)"/>
    </g>
    <path d="m1053.755,855.182h-.078l-157.434-.473.158-52.491,131.109.394V277.309h-131.187v-52.491h157.433c14.495,0,26.245,11.75,26.245,26.245v577.873c0,6.975-2.776,13.662-7.715,18.586-4.921,4.906-11.585,7.659-18.531,7.659Z" fill="url(#linear-gradient-4)"/>
    <path d="m26.245,855.182c-6.946,0-13.61-2.753-18.531-7.659-4.939-4.924-7.715-11.612-7.715-18.586V251.064c0-14.495,11.75-26.245,26.245-26.245h157.433v52.491H52.491v525.303l131.109-.394.158,52.491-157.434.473h-.078Z" fill="url(#linear-gradient-5)"/>
  </g>
</svg>