<?xml version="1.0" encoding="UTF-8"?>
<svg id="adobe-illustrator" xmlns="http://www.w3.org/2000/svg" viewBox="0 0 48 48">
  <path d="m22.344,23.196c-.101-.297-.196-.588-.292-.88-.096-.292-.191-.583-.292-.88-.201-.593-.383-1.148-.544-1.703-.071-.237-.139-.467-.204-.689-.082-.28-.161-.548-.239-.804h-.04c-.181.823-.403,1.645-.685,2.468-.115.35-.23.705-.346,1.064-.189.583-.381,1.175-.58,1.767-.282.976-.584,1.875-.887,2.678h5.118c-.121-.402-.282-.88-.464-1.377-.181-.517-.363-1.071-.544-1.645Z" fill="#300"/>
  <path d="m39.5,0H8.5C3.8,0,0,3.897,0,8.718v30.564c0,4.82,3.8,8.718,8.5,8.718h31c4.7,0,8.5-3.897,8.5-8.718V8.718c0-4.82-3.8-8.718-8.5-8.718Zm-8.754,34.866h-4.211c-.141.019-.282-.077-.322-.21l-1.652-4.553h-7.496l-1.531,4.496c-.04.172-.202.287-.383.268h-3.788c-.222,0-.282-.115-.222-.344l6.488-17.734c.018-.056.035-.113.053-.172.044-.143.091-.297.148-.459.081-.402.121-.823.121-1.243-.02-.096.06-.191.161-.21h5.219c.161,0,.242.057.262.153l7.354,19.704c.06.21,0,.306-.201.306Zm6.851-.287c0,.21-.081.306-.262.306h-3.949c-.201,0-.302-.115-.302-.306v-14.731c0-.191.081-.268.262-.268h3.99c.181,0,.262.096.262.268v14.731Zm-.423-17.275c-.464.459-1.149.708-1.834.67-.665.019-1.31-.23-1.793-.67-.463-.478-.705-1.11-.685-1.76-.02-.65.242-1.263.725-1.703.484-.44,1.128-.67,1.793-.67.786,0,1.39.23,1.834.67.443.459.685,1.071.665,1.703.02.65-.222,1.282-.705,1.76Z" fill="#300"/>
</svg>